<svg width="333" height="75" viewBox="0 0 333 75" fill="none" xmlns="http://www.w3.org/2000/svg">
<g clip-path="url(#clip0_12_2)">
<rect width="333" height="75" fill="white"/>
<path d="M0.176208 0H92.0595V60.7085H0.176208V0Z" fill="white"/>
<path d="M91.2226 0H333V60.7085H91.2226V0Z" fill="#C51821"/>
<path d="M0.176208 0H333V1.36876H0.176208V0ZM0.176208 59.2995H333V60.6683H0.176208V59.2995Z" fill="#1D1D1B"/>
<path d="M0.220215 60.6683V-0.0402527H1.71783V60.6683H0.220215ZM331.502 60.7085V4.96269e-06H333V60.7085H331.502Z" fill="#1D1D1B"/>
<path d="M10.0869 12.037H13.9191V48.6312H10.0869V12.037ZM17.9274 12.037H49.6857V15.0161H35.7226V48.6312H31.8905V15.0161H17.9274V12.037ZM54.6631 36.5942C54.4869 44.1224 60.4333 46.4171 67.7452 46.4171C75.0572 46.4171 78.3607 44.3237 78.3607 38.9694C78.3607 33.6151 73.8238 33.1723 70.1238 32.3671L61.2262 30.3543C56.5131 29.2673 52.1964 27.2142 52.1964 21.5378C52.1964 15.8615 54.7072 11.2319 65.9833 11.2319C77.2595 11.2319 80.8274 15.1369 80.7833 22.6248H76.9512C76.731 17.029 71.6655 14.2109 66.0274 14.2109C60.3893 14.2109 55.9845 16.0628 55.9845 21.4976C55.9845 26.9324 58.8036 26.3687 62.0631 27.0934L71.8417 29.3076C77.5238 30.6763 82.2369 32.9307 82.2369 38.9291C82.2369 44.9275 81.1357 49.3961 66.9083 49.3961C52.681 49.3961 50.4786 45.4911 50.9191 36.5942H54.7512H54.6631Z" fill="#C51821"/>
<path d="M90.4738 59.9839V0.684387H91.9714V59.9839H90.4738Z" fill="#1D1D1B"/>
<path d="M113.599 14.8953L126.725 45.2898H124.523L120.338 35.5475H104.437L100.208 45.2898H98.006L111.352 14.8953H113.599ZM119.677 33.9372L112.542 16.7472H112.454L105.054 33.9372H119.677ZM130.029 14.8953V45.2898H128.267V14.8953H130.029ZM143.507 24.7987H138.31V40.0564C138.31 43.599 140.116 43.9211 143.463 43.8406V45.2496C139.851 45.4509 136.327 45.008 136.548 40.0564V24.7987H132.143V23.3897H136.548V16.5861H138.31V23.3897H143.507V24.7987ZM155.708 22.9066C162.756 22.9066 166.676 28.1401 166.676 34.3398C166.676 40.5394 162.712 45.7729 155.708 45.7729C148.705 45.7729 144.741 40.5394 144.741 34.3398C144.741 28.1401 148.705 22.9066 155.708 22.9066ZM155.708 44.4042C161.699 44.4042 164.914 39.6135 164.914 34.38C164.914 29.1465 161.699 24.3559 155.708 24.3559C149.718 24.3559 146.502 29.1465 146.502 34.38C146.502 39.6135 149.718 44.4042 155.708 44.4042ZM182.313 14.8953L195.439 45.2898H193.237L189.052 35.5475H173.151L168.923 45.2898H166.72L180.067 14.8953H182.313ZM188.436 33.9372L181.3 16.7472H181.212L173.812 33.9372H188.436ZM215.041 40.5797H214.952C213.014 44.0419 210.063 45.7729 205.791 45.7729C198.567 45.7729 195.439 40.4187 195.439 34.38C195.439 28.3414 198.875 22.9066 206.099 22.9066C213.323 22.9066 213.675 24.8792 214.952 28.3011H215.041V14.8953H216.802V45.2898H215.041V40.62V40.5797ZM214.996 34.38C214.996 29.2673 212.266 24.3156 206.099 24.3156C199.932 24.3156 197.201 29.1063 197.201 34.38C197.201 39.6538 199.976 44.3639 206.143 44.3639C212.31 44.3639 214.996 39.372 214.996 34.38ZM223.277 28.2609H223.41C224.335 25.4026 228.255 23.1079 232.571 23.2689V24.8792C230.721 24.6779 228.123 25.0805 225.964 27.0129C224.202 28.6634 223.454 30.0322 223.277 33.2931V45.2496H221.516V23.3897H223.277V28.2206V28.2609ZM233.937 19.2834V14.8953H235.699V19.2834H233.937ZM233.937 45.2898V23.4299H235.699V45.2898H233.937ZM258.075 41.2238C258.075 42.5121 258.075 43.8808 259.661 43.8808C261.246 43.8808 260.41 43.8406 260.982 43.7601V45.1288C260.454 45.2093 260.013 45.2898 259.529 45.2898C256.754 45.2898 256.313 43.8808 256.313 42.1095V40.942H256.225C255.124 43.5185 251.908 45.7729 247.327 45.7729C242.746 45.7729 239.311 44.2029 239.311 39.6135C239.311 35.0241 244.156 33.4541 248.12 33.132C256.049 32.6087 256.357 32.1659 256.357 28.5829C256.357 25 255.168 24.2754 249.706 24.2754C244.244 24.2754 242.57 26.3285 242.35 30.1127H240.588C240.808 25.3221 244.068 22.8663 249.706 22.8663C255.344 22.8663 258.075 24.0741 258.075 28.5829V41.2238ZM256.269 32.8502C254.86 34.2995 251.071 34.1385 247.592 34.5411C243.407 34.9839 241.029 36.3124 241.029 39.6135C241.029 42.9146 243.143 44.3639 247.327 44.3639C255.388 44.3639 256.269 38.0837 256.269 36.9163V32.8502ZM271.554 24.7987H266.356V40.0564C266.356 43.599 268.162 43.9211 271.51 43.8406V45.2496C267.898 45.4509 264.374 45.008 264.594 40.0564V24.7987H260.189V23.3897H264.594V16.5861H266.356V23.3897H271.554V24.7987ZM274.285 19.2834V14.8953H276.046V19.2834H274.285ZM274.285 45.2898V23.4299H276.046V45.2898H274.285ZM298.775 30.1932C298.467 26.3285 294.987 24.3156 290.67 24.3156C286.354 24.3156 281.464 29.1465 281.464 34.1385C281.464 39.1304 284.504 44.4042 290.67 44.4042C296.837 44.4042 298.379 41.5861 298.995 37.6006H300.757C299.964 42.8341 295.824 45.8132 290.67 45.8132C282.918 45.8132 279.702 40.2576 279.702 34.1385C279.702 28.0193 283.623 22.9066 290.67 22.9066C297.718 22.9066 300.008 25.2013 300.537 30.1932H298.775ZM313.839 22.9066C320.887 22.9066 324.807 28.1401 324.807 34.3398C324.807 40.5394 320.843 45.7729 313.839 45.7729C306.836 45.7729 302.871 40.5394 302.871 34.3398C302.871 28.1401 306.836 22.9066 313.839 22.9066ZM313.839 44.4042C319.83 44.4042 323.045 39.6135 323.045 34.38C323.045 29.1465 319.83 24.3559 313.839 24.3559C307.849 24.3559 304.633 29.1465 304.633 34.38C304.633 39.6135 307.849 44.4042 313.839 44.4042Z" fill="white"/>
<path d="M170.068 64.9758H171.918V68.8808H176.763V64.9758H178.613V74.7584H176.763V70.3704H171.918V74.7584H170.068V64.9758ZM180.683 64.9758H182.533V70.6522C182.533 71.9807 182.621 73.4702 185.044 73.4702C187.467 73.4702 187.555 71.9404 187.555 70.6522V64.9758H189.405V71.2158C189.405 73.7117 187.643 74.9597 185 74.9597C182.357 74.9597 180.595 73.7117 180.595 71.2158V64.9758H180.683ZM191.387 64.9758H194.03L196.981 72.6248L199.844 64.9758H202.443V74.7584H200.681V67.2303L197.73 74.7584H196.188L193.237 67.2303V74.7584H191.475V64.9758H191.387ZM207.508 64.9758H209.49L213.587 74.7584H211.561L210.548 72.182H206.275L205.262 74.7584H203.324L207.42 64.9758H207.508ZM206.848 70.8534H210.107L208.521 66.6667H208.477L206.848 70.8534ZM214.468 64.9758H216.45L221.339 72.182V64.9758H223.101V74.7584H221.119L216.274 67.5926H216.23V74.7584H214.468V64.9758Z" fill="#C51821"/>
<path d="M236.624 68.0757C236.315 66.9485 235.523 66.1433 233.937 66.1433C231.646 66.1433 230.677 67.9952 230.677 69.847C230.677 71.6989 231.646 73.5507 233.937 73.5507C236.227 73.5507 236.492 72.4235 236.668 70.9742H238.474C238.342 73.3092 236.492 74.9195 233.937 74.9195C231.382 74.9195 228.827 72.5845 228.827 69.8068C228.827 67.029 230.765 64.694 233.937 64.694C236.36 64.694 238.254 65.942 238.474 68.0354H236.624V68.0757ZM242.614 64.9758H244.596L248.693 74.7584H246.667L245.654 72.182H241.381L240.368 74.7584H238.43L242.526 64.9758H242.614ZM241.954 70.8535H245.213L243.627 66.6667H243.583L241.954 70.8535ZM249.618 64.9758H254.331C257.37 64.9758 257.987 66.7874 257.987 67.9952C257.987 69.2029 257.414 71.0145 254.331 70.9742H251.468V74.7182H249.618V64.9356V64.9758ZM251.512 69.6055H254.243C255.08 69.6055 256.093 69.2029 256.093 67.9952C256.093 66.7874 255.256 66.3849 254.243 66.3849H251.468V69.6055H251.512ZM259.176 64.9758H261.026V74.7584H259.176V64.9758ZM262.039 64.9758H270.673V66.4654H267.281V74.7584H265.431V66.4654H262.039V64.9758ZM273.448 64.9758H275.43L279.526 74.7584H277.5L276.487 72.182H272.214L271.201 74.7584H269.263L273.36 64.9758H273.448ZM272.787 70.8535H276.046L274.461 66.6667H274.417L272.787 70.8535ZM280.451 64.9758H282.301V73.2689H287.719V74.7584H280.407V64.9758H280.451Z" fill="#1D1D1B"/>
<path d="M293.049 64.9759H300.449V66.4654H294.943V69.0419H299.788V70.4509H294.943V74.7987H293.093V65.0161L293.049 64.9759ZM301.55 64.9759H303.4V74.7585H301.55V64.9759ZM305.47 64.9759H310.58C312.914 64.9759 314.104 65.942 314.104 67.6329C314.104 69.3237 312.694 69.9678 312.342 70.0886C313.002 70.2094 313.927 70.6522 313.927 72.182C313.927 73.7118 314.104 74.3559 314.5 74.7585H312.474C312.21 74.3156 312.21 73.7923 312.21 73.3092C312.21 71.4976 311.813 70.7327 310.095 70.7327H307.32V74.7585H305.47V64.9759ZM307.364 69.4445H310.448C311.637 69.4445 312.254 68.9211 312.254 67.8744C312.254 66.8277 311.373 66.3849 310.404 66.3849H307.364V69.4445ZM317.099 71.4976C317.099 72.9871 318.332 73.591 319.83 73.591C321.327 73.591 322.076 72.8664 322.076 72.1015C322.076 71.3366 321.636 71.0548 321.195 70.8937C320.446 70.6522 319.477 70.4509 318.024 70.0886C316.218 69.6457 315.645 68.6393 315.645 67.5926C315.645 65.62 317.627 64.7343 319.565 64.7343C321.504 64.7343 323.662 65.8213 323.662 67.8744H321.812C321.724 66.6264 320.799 66.1433 319.521 66.1433C318.244 66.1433 317.539 66.4251 317.539 67.4316C317.539 68.438 318.068 68.5185 318.817 68.6796C318.993 68.7198 321.327 69.2834 321.9 69.4445C323.31 69.847 323.97 70.934 323.97 71.9404C323.97 74.1143 321.856 75 319.698 75C317.539 75 315.293 73.9131 315.249 71.4976H317.099ZM324.323 64.9759H332.956V66.4654H329.564V74.7585H327.714V66.4654H324.323V64.9759Z" fill="#C51821"/>
<path d="M4.09643 64.9758H6.07857L10.175 74.7584H8.14881L7.13571 72.182H2.95119L1.9381 74.7584H0L4.09643 64.9758ZM3.43571 70.8535H6.69524L5.10952 66.6667H5.06548L3.43571 70.8535ZM17.8833 68.0757C17.575 66.9485 16.7821 66.1433 15.1964 66.1433C12.906 66.1433 11.9369 67.9952 11.9369 69.847C11.9369 71.6989 12.906 73.5507 15.1964 73.5507C17.4869 73.5507 17.7512 72.4235 17.9274 70.9742H19.7333C19.6012 73.3092 17.7512 74.9195 15.1964 74.9195C12.6417 74.9195 10.0869 72.5845 10.0869 69.8068C10.0869 67.029 12.025 64.694 15.1964 64.694C17.619 64.694 19.5131 65.942 19.7333 68.0354H17.8833V68.0757ZM23.8738 64.9758H25.856L29.9524 74.7584H27.9262L26.9131 72.182H22.6405L21.6274 74.7584H19.6893L23.7857 64.9758H23.8738ZM23.2131 70.8535H26.4726L24.8869 66.6667H24.8429L23.2131 70.8535ZM30.8774 64.9758H35.3262C38.6298 64.9758 40.0393 67.1497 40.0393 69.847C40.0393 72.5443 38.6298 74.7182 35.3262 74.7182H30.8774V64.9356V64.9758ZM32.7714 73.3494H34.6214C37.5726 73.3494 38.1893 71.8196 38.1893 69.847C38.1893 67.8744 37.5726 66.3446 34.6214 66.3446H32.7714V73.3092V73.3494ZM41.581 64.9758H49.2893V66.4654H43.475V69.0419H48.8488V70.4509H43.475V73.3092H49.4214V74.7987H41.625V65.0161L41.581 64.9758ZM50.7869 64.9758H53.4298L56.381 72.6248L59.2441 64.9758H61.8429V74.7584H60.081V67.2303L57.1298 74.7584H55.5881L52.6369 67.2303V74.7584H50.875V64.9758H50.7869ZM66.8202 70.934L62.8119 64.9758H64.9702L67.7893 69.3639L70.5643 64.9758H72.6786L68.6702 70.934V74.7584H66.8202V70.934Z" fill="#1D1D1B"/>
</g>
<defs>
<clipPath id="clip0_12_2">
<rect width="333" height="75" fill="white"/>
</clipPath>
</defs>
</svg>
