<svg width="160" height="48" viewBox="0 0 160 48" fill="none" xmlns="http://www.w3.org/2000/svg">
<rect width="160" height="48" rx="3" fill="#F0EAE0"/>
<path d="M9.62463 17.8H13.9606V29H12.2486V24.104H8.61663V29H6.92063V20.6L9.62463 17.8ZM8.61663 21.08V22.52H12.2486V19.384H10.2486L8.61663 21.08ZM18.3384 17.8H24.8344L25.6984 19.032V20.664L24.0024 22.44H24.2584L25.8424 24.776V28.12L24.4184 29H18.3384V17.8ZM20.0504 19.384V22.44H21.7944L23.9704 20.168V19.384H20.0504ZM20.0504 24.024V27.416H24.1464V25.032L23.4264 24.024H20.0504ZM31.3081 17.8H36.0441L37.0681 19.352L35.9161 20.472L35.1801 19.384H31.9641L31.6121 19.768V21.704L32.1561 22.472H36.1881L37.4201 24.328V27.704L36.1721 29H30.7001L29.8361 27.768L30.9401 26.616L31.5321 27.416H35.4521L35.7081 27.208V24.6L35.3241 24.072H31.2921L29.9001 22.008V19.272L31.3081 17.8ZM42.8859 17.8H47.6219L48.9819 19.864V27.528L47.5899 29H42.8699L41.4619 26.936V19.272L42.8859 17.8ZM43.1899 26.648L43.7019 27.416H46.8859L47.2539 27.016V20.152L46.7419 19.384H43.5419L43.1899 19.784V26.648ZM53.0556 17.8H54.7676V26.616L55.3116 27.4H58.8636V26.248H60.5756V29H54.4636L53.0556 26.872V17.8ZM70.4574 17.8H72.1694V29H70.4574V28.376L69.4334 29H66.0414L64.6494 26.936V17.8H66.3614V26.632L66.8734 27.416H70.0734L70.4574 27.016V17.8ZM75.8271 17.8H84.1791V19.384H79.7471L80.8671 20.28V29H79.1551V20.632L78.6431 19.384H75.8271V17.8ZM89.1489 17.8H95.2449V19.384H89.8049L89.4369 19.784V22.44H93.1489V24.04H89.4369V26.632L89.9649 27.416H95.2449V29H89.1169L87.7249 26.936V19.256L89.1489 17.8ZM101.191 17.368H104.903L105.895 18.808V19.752L103.319 22.424L105.335 25.432L105.991 24.728H105.447V23.144H107.911V25.08L106.231 26.792L107.767 29H105.847L105.111 27.928L104.103 29H99.5906L98.4706 27.352V25.144L101.271 22.232L99.7666 20.008V18.856L101.191 17.368ZM101.335 19.512L102.407 21.064L104.247 19.192L104.103 18.952H101.879L101.335 19.512ZM100.183 27.048L100.423 27.416H103.447L104.215 26.6L102.167 23.592L100.183 25.656V27.048ZM112.688 17.8H117.376L118.592 19.64L117.472 20.824L116.544 19.4H113.328L112.976 19.784V26.632L113.488 27.416H116.672L117.744 26.328L118.624 27.656L117.344 29H112.64L111.264 26.936V19.24L112.688 17.8ZM124.042 17.8H128.778L130.138 19.864V27.528L128.746 29H124.026L122.618 26.936V19.272L124.042 17.8ZM124.346 26.648L124.858 27.416H128.042L128.41 27.016V20.152L127.898 19.384H124.698L124.346 19.784V26.648ZM134.372 17.8H139.636L141.892 21.16V27.544L140.5 29H134.372V17.8ZM136.084 19.384V27.416H139.796L140.18 27.032V21.464L138.772 19.384H136.084ZM147.118 17.8H153.214V19.384H147.774L147.406 19.784V22.44H151.118V24.04H147.406V26.632L147.934 27.416H153.214V29H147.086L145.694 26.936V19.256L147.118 17.8Z" fill="#303D3C"/>
</svg>
