<svg width="48" height="48" viewBox="0 0 48 48" fill="none" xmlns="http://www.w3.org/2000/svg">
<rect width="48" height="48" rx="3" fill="#FAC4B8"/>
<path d="M13.3359 15.0039C13.5911 15.0039 13.8509 15.0335 14.1152 15.0928C14.3796 15.152 14.6416 15.2477 14.9014 15.3799C15.1611 15.512 15.373 15.7057 15.5371 15.9609C15.7012 16.2161 15.7832 16.5169 15.7832 16.8633C15.7832 17.1458 15.7217 17.4238 15.5986 17.6973C15.4756 17.9707 15.3298 18.2008 15.1611 18.3877C14.9788 18.5837 14.7829 18.7614 14.5732 18.9209C14.3499 19.0895 14.1608 19.2171 14.0059 19.3037C13.8509 19.3903 13.7096 19.4655 13.582 19.5293C13.5 19.5566 13.4772 19.6113 13.5137 19.6934C13.6322 20.0944 13.7734 20.5091 13.9375 20.9375C14.1016 21.3659 14.2702 21.7624 14.4434 22.127C14.6165 22.487 14.7715 22.7741 14.9082 22.9883C14.9857 23.1159 15.0745 23.2298 15.1748 23.3301C15.2751 23.4258 15.373 23.4896 15.4688 23.5215C15.4961 23.5306 15.5189 23.5397 15.5371 23.5488C15.5599 23.5534 15.5781 23.5602 15.5918 23.5693C15.6146 23.5785 15.6579 23.5876 15.7217 23.5967C15.7627 23.6012 15.8265 23.6035 15.9131 23.6035C16.0042 23.6035 16.0612 23.6035 16.084 23.6035C16.1478 23.7767 16.1523 23.9043 16.0977 23.9863C15.8835 24.0319 15.6191 24.0547 15.3047 24.0547C14.6986 24.0547 14.2018 23.7585 13.8145 23.166C13.6185 22.8698 13.4089 22.4528 13.1855 21.915C12.9622 21.3773 12.7253 20.7188 12.4746 19.9395C12.429 19.8118 12.2285 19.748 11.873 19.748C11.5905 19.748 11.4036 19.7594 11.3125 19.7822C11.235 19.8005 11.1849 19.8665 11.1621 19.9805L10.7656 22.0996C10.6654 22.5872 10.6152 22.9974 10.6152 23.3301C10.6152 23.403 10.6768 23.4691 10.7998 23.5283C10.9229 23.5876 11.0436 23.6263 11.1621 23.6445L11.3535 23.6719C11.3717 23.6719 11.3809 23.6901 11.3809 23.7266C11.3809 23.8268 11.3535 23.9316 11.2988 24.041C10.875 24.0182 10.5446 24.0023 10.3076 23.9932C10.0706 23.9795 9.92708 23.9727 9.87695 23.9727C9.86328 23.9727 9.73112 23.9795 9.48047 23.9932C9.22982 24.0023 8.86068 24.0182 8.37305 24.041C8.35482 24.0228 8.3457 23.9863 8.3457 23.9316C8.3457 23.7585 8.3776 23.6719 8.44141 23.6719C8.51432 23.6719 8.61458 23.6582 8.74219 23.6309C8.87435 23.6035 8.9974 23.5671 9.11133 23.5215C9.22526 23.4759 9.29362 23.4258 9.31641 23.3711C9.41211 23.1387 9.5306 22.7012 9.67188 22.0586L10.793 16.3984C10.8385 16.1706 10.8613 15.9427 10.8613 15.7148C10.8613 15.6055 10.7702 15.5212 10.5879 15.4619C10.4056 15.4027 10.2552 15.373 10.1367 15.373C10.1185 15.373 10.1094 15.3411 10.1094 15.2773C10.1094 15.1452 10.1413 15.054 10.2051 15.0039C10.597 15.0312 11.071 15.0449 11.627 15.0449C11.8822 15.0449 12.167 15.0381 12.4814 15.0244C12.7959 15.0107 13.0807 15.0039 13.3359 15.0039ZM13.1172 15.5098C12.6523 15.5098 12.3584 15.5234 12.2354 15.5508C12.1169 15.5781 12.0462 15.651 12.0234 15.7695L11.3672 18.9551V18.9824C11.3672 19.1191 11.5814 19.1875 12.0098 19.1875C12.4245 19.1875 12.8255 19.1077 13.2129 18.9482C13.5957 18.7887 13.9261 18.5199 14.2041 18.1416C14.4821 17.7633 14.6211 17.3145 14.6211 16.7949C14.6211 15.9382 14.1198 15.5098 13.1172 15.5098ZM19.0762 18.0527C19.6139 18.0527 20.0309 18.2396 20.3271 18.6133C20.6234 18.987 20.7715 19.502 20.7715 20.1582C20.7715 20.6276 20.6803 21.0947 20.498 21.5596C20.3158 22.0199 20.0765 22.4391 19.7803 22.8174C19.484 23.1956 19.1582 23.4987 18.8027 23.7266C18.4473 23.9544 18.0964 24.0684 17.75 24.0684C17.2031 24.0684 16.7861 23.8906 16.499 23.5352C16.2119 23.1797 16.0684 22.6738 16.0684 22.0176C16.0684 21.5436 16.1572 21.0742 16.335 20.6094C16.5173 20.14 16.7565 19.7139 17.0527 19.3311C17.349 18.9437 17.6725 18.6338 18.0234 18.4014C18.3789 18.1689 18.7298 18.0527 19.0762 18.0527ZM18.9121 18.6133C18.6842 18.6133 18.4632 18.7135 18.249 18.9141C18.0348 19.11 17.8411 19.3675 17.668 19.6865C17.4948 20.0055 17.3581 20.3542 17.2578 20.7324C17.1576 21.1107 17.1074 21.4798 17.1074 21.8398C17.1074 22.3685 17.1917 22.7786 17.3604 23.0703C17.529 23.362 17.7409 23.5078 17.9961 23.5078C18.224 23.5078 18.4404 23.4098 18.6455 23.2139C18.8551 23.0133 19.042 22.7536 19.2061 22.4346C19.3701 22.111 19.4977 21.7601 19.5889 21.3818C19.6846 21.0036 19.7324 20.6322 19.7324 20.2676C19.7324 19.7298 19.6595 19.3197 19.5137 19.0371C19.3678 18.7546 19.1673 18.6133 18.9121 18.6133ZM24.5703 18.0527C24.9076 18.0527 25.2402 18.112 25.5684 18.2305L24.7344 22.5508C24.707 22.6602 24.6934 22.7741 24.6934 22.8926C24.6934 23.1204 24.7389 23.2344 24.8301 23.2344C24.944 23.2344 25.0807 23.1546 25.2402 22.9951C25.3997 22.8311 25.5365 22.6921 25.6504 22.5781L25.7324 22.4824C25.7507 22.4824 25.7848 22.5257 25.835 22.6123C25.8851 22.6989 25.9102 22.7604 25.9102 22.7969C25.8327 22.929 25.6914 23.0977 25.4863 23.3027C25.2858 23.5078 25.0671 23.6901 24.8301 23.8496C24.5931 24.0046 24.3789 24.082 24.1875 24.082C24.0417 24.082 23.9277 24.016 23.8457 23.8838C23.7637 23.7516 23.7227 23.5807 23.7227 23.3711C23.7227 23.2298 23.7546 22.9883 23.8184 22.6465L23.8662 22.4072C23.8799 22.3434 23.8867 22.3047 23.8867 22.291C23.8138 22.4277 23.709 22.5964 23.5723 22.7969C23.4355 22.9928 23.2783 23.1888 23.1006 23.3848C22.9229 23.5807 22.736 23.7448 22.54 23.877C22.3441 24.0046 22.1504 24.0684 21.959 24.0684C21.5579 24.0684 21.2412 23.8883 21.0088 23.5283C20.7764 23.1683 20.6602 22.7331 20.6602 22.2227C20.6602 21.571 20.8538 20.9215 21.2412 20.2744C21.501 19.8369 21.8109 19.4518 22.1709 19.1191C22.5355 18.7865 22.9251 18.5267 23.3398 18.3398C23.7546 18.1484 24.1647 18.0527 24.5703 18.0527ZM23.9961 18.6816C23.7272 18.6816 23.4561 18.7773 23.1826 18.9688C22.9092 19.1556 22.6585 19.4085 22.4307 19.7275C22.2028 20.042 22.0182 20.3929 21.877 20.7803C21.7402 21.1631 21.6719 21.5482 21.6719 21.9355C21.6719 22.8288 21.9043 23.2754 22.3691 23.2754C22.5332 23.2754 22.7109 23.1842 22.9023 23.002C23.0938 22.8197 23.2829 22.5781 23.4697 22.2773C23.6566 21.9766 23.8206 21.6507 23.9619 21.2998C24.1077 20.9443 24.2148 20.5957 24.2832 20.2539L24.5566 18.8594C24.4473 18.7409 24.2604 18.6816 23.9961 18.6816ZM31.3496 14.8945L31.1445 15.9199L29.8594 22.5508C29.832 22.6602 29.8184 22.7741 29.8184 22.8926C29.8184 23.1204 29.8639 23.2344 29.9551 23.2344C30.069 23.2344 30.2057 23.1546 30.3652 22.9951C30.5247 22.8311 30.6615 22.6921 30.7754 22.5781L30.8574 22.4824C30.8757 22.4824 30.9098 22.5257 30.96 22.6123C31.0101 22.6989 31.0352 22.7604 31.0352 22.7969C30.9577 22.929 30.8164 23.0977 30.6113 23.3027C30.4108 23.5078 30.1921 23.6901 29.9551 23.8496C29.7181 24.0046 29.5039 24.082 29.3125 24.082C29.1667 24.082 29.0527 24.016 28.9707 23.8838C28.8887 23.7516 28.8477 23.5807 28.8477 23.3711C28.8477 23.2344 28.8796 22.9928 28.9434 22.6465C28.9525 22.6009 28.9684 22.5326 28.9912 22.4414C29.014 22.3503 29.0254 22.2956 29.0254 22.2773C28.9661 22.3822 28.9001 22.4893 28.8271 22.5986C28.7588 22.708 28.6859 22.8197 28.6084 22.9336C28.5036 23.0885 28.3623 23.2549 28.1846 23.4326C28.0114 23.6058 27.8268 23.7562 27.6309 23.8838C27.4395 24.0068 27.2617 24.0684 27.0977 24.0684C26.6784 24.0684 26.3548 23.8883 26.127 23.5283C25.8991 23.1683 25.7852 22.7331 25.7852 22.2227C25.7852 21.7305 25.8991 21.2383 26.127 20.7461C26.3594 20.2539 26.6647 19.805 27.043 19.3994C27.4212 18.9938 27.8382 18.668 28.2939 18.4219C28.7542 18.1758 29.2122 18.0527 29.668 18.0527H29.8457L30.2285 16.0156C30.2559 15.8835 30.2695 15.7559 30.2695 15.6328C30.2695 15.4596 29.9915 15.373 29.4355 15.373C29.4082 15.373 29.3945 15.3457 29.3945 15.291C29.3945 15.1816 29.431 15.0905 29.5039 15.0176C30.1237 14.9629 30.7116 14.8353 31.2676 14.6348C31.3223 14.6667 31.3496 14.7533 31.3496 14.8945ZM29.4082 20.2266L29.5723 19.3379C29.6087 19.1647 29.5905 19.012 29.5176 18.8799C29.4447 18.7477 29.3216 18.6816 29.1484 18.6816C28.8704 18.6816 28.5924 18.7773 28.3145 18.9688C28.0365 19.1602 27.7835 19.4154 27.5557 19.7344C27.3278 20.0488 27.1432 20.3997 27.002 20.7871C26.8652 21.1699 26.7969 21.5573 26.7969 21.9492C26.7969 22.8333 27.0293 23.2754 27.4941 23.2754C27.6628 23.2754 27.8428 23.1842 28.0342 23.002C28.2301 22.8151 28.4193 22.5713 28.6016 22.2705C28.7839 21.9697 28.9456 21.6416 29.0869 21.2861C29.2327 20.9261 29.3398 20.5729 29.4082 20.2266ZM34.1484 18.2578H35.1055L35.4336 16.5898C35.4609 16.4987 35.6842 16.4531 36.1035 16.4531C36.1947 16.4531 36.2767 16.4577 36.3496 16.4668L36.0078 18.2578H37.252C37.2975 18.2578 37.3203 18.3171 37.3203 18.4355C37.3203 18.5404 37.2793 18.6725 37.1973 18.832H35.8984L35.1738 22.5508C35.1465 22.6602 35.1328 22.7741 35.1328 22.8926C35.1328 23.1204 35.1784 23.2344 35.2695 23.2344C35.3835 23.2344 35.5202 23.1546 35.6797 22.9951C35.8392 22.8311 35.9759 22.6921 36.0898 22.5781L36.1719 22.4824C36.1901 22.4824 36.2243 22.5257 36.2744 22.6123C36.3245 22.6989 36.3496 22.7604 36.3496 22.7969C36.2721 22.929 36.1309 23.0977 35.9258 23.3027C35.7253 23.5078 35.5065 23.6901 35.2695 23.8496C35.0326 24.0046 34.8184 24.082 34.627 24.082C34.4811 24.082 34.3672 24.016 34.2852 23.8838C34.2031 23.7516 34.1621 23.5807 34.1621 23.3711C34.1621 23.2344 34.194 22.9928 34.2578 22.6465L34.9961 18.832H34.0254C33.998 18.832 33.9844 18.7819 33.9844 18.6816C33.9844 18.5632 34.0391 18.4219 34.1484 18.2578ZM39.2734 18.0527C39.8112 18.0527 40.2282 18.2396 40.5244 18.6133C40.8206 18.987 40.9688 19.502 40.9688 20.1582C40.9688 20.6276 40.8776 21.0947 40.6953 21.5596C40.513 22.0199 40.2738 22.4391 39.9775 22.8174C39.6813 23.1956 39.3555 23.4987 39 23.7266C38.6445 23.9544 38.2936 24.0684 37.9473 24.0684C37.4004 24.0684 36.9834 23.8906 36.6963 23.5352C36.4092 23.1797 36.2656 22.6738 36.2656 22.0176C36.2656 21.5436 36.3545 21.0742 36.5322 20.6094C36.7145 20.14 36.9538 19.7139 37.25 19.3311C37.5462 18.9437 37.8698 18.6338 38.2207 18.4014C38.5762 18.1689 38.9271 18.0527 39.2734 18.0527ZM39.1094 18.6133C38.8815 18.6133 38.6605 18.7135 38.4463 18.9141C38.2321 19.11 38.0384 19.3675 37.8652 19.6865C37.6921 20.0055 37.5553 20.3542 37.4551 20.7324C37.3548 21.1107 37.3047 21.4798 37.3047 21.8398C37.3047 22.3685 37.389 22.7786 37.5576 23.0703C37.7262 23.362 37.9382 23.5078 38.1934 23.5078C38.4212 23.5078 38.6377 23.4098 38.8428 23.2139C39.0524 23.0133 39.2393 22.7536 39.4033 22.4346C39.5674 22.111 39.695 21.7601 39.7861 21.3818C39.8818 21.0036 39.9297 20.6322 39.9297 20.2676C39.9297 19.7298 39.8568 19.3197 39.7109 19.0371C39.5651 18.7546 39.3646 18.6133 39.1094 18.6133ZM9.80176 26.0039C10.5947 26.0039 11.2578 26.1543 11.791 26.4551C12.3288 26.7559 12.7321 27.166 13.001 27.6855C13.2744 28.2051 13.4111 28.7975 13.4111 29.4629C13.4111 29.9277 13.3428 30.4108 13.2061 30.9121C13.0693 31.4134 12.8529 31.9102 12.5566 32.4023C12.2604 32.8945 11.9072 33.3366 11.4971 33.7285C11.0869 34.1204 10.5811 34.4372 9.97949 34.6787C9.37793 34.9202 8.72624 35.041 8.02441 35.041C7.94238 35.041 7.81934 35.0365 7.65527 35.0273C7.49577 35.0228 7.29525 35.016 7.05371 35.0068C6.81217 34.9977 6.59115 34.9909 6.39062 34.9863C6.19466 34.9772 6.01921 34.9727 5.86426 34.9727L4.34668 35.041C4.33757 35.0319 4.33301 34.9954 4.33301 34.9316C4.33301 34.7585 4.35579 34.6719 4.40137 34.6719C4.46973 34.6719 4.57227 34.6559 4.70898 34.624C4.8457 34.5876 4.97559 34.5443 5.09863 34.4941C5.22168 34.4395 5.2946 34.3848 5.31738 34.3301C5.44499 34.0703 5.56348 33.6465 5.67285 33.0586L6.65723 27.9727C6.77572 27.3073 6.82585 26.8835 6.80762 26.7012C6.80306 26.651 6.75065 26.6009 6.65039 26.5508C6.55013 26.5007 6.44076 26.4596 6.32227 26.4277C6.20378 26.3913 6.11035 26.373 6.04199 26.373C6.02376 26.373 6.01465 26.3548 6.01465 26.3184C6.01465 26.1725 6.04655 26.0677 6.11035 26.0039C6.31999 26.013 6.54557 26.0199 6.78711 26.0244C7.0332 26.029 7.29525 26.0312 7.57324 26.0312C7.73275 26.0312 7.91504 26.0312 8.12012 26.0312C8.3252 26.0267 8.55306 26.0221 8.80371 26.0176C9.05436 26.013 9.26172 26.0107 9.42578 26.0107C9.5944 26.0062 9.71973 26.0039 9.80176 26.0039ZM9.77441 26.6055C8.79915 26.6055 8.25228 26.6784 8.13379 26.8242C7.98796 27.0111 7.86491 27.3711 7.76465 27.9043L6.7666 33.0996C6.73926 33.2272 6.72559 33.4209 6.72559 33.6807C6.72559 33.945 6.7347 34.0977 6.75293 34.1387C6.83496 34.321 7.36361 34.4121 8.33887 34.4121C9.10905 34.4121 9.79264 34.1637 10.3896 33.667C10.9912 33.1702 11.4447 32.5391 11.75 31.7734C12.0553 31.0078 12.208 30.1966 12.208 29.3398C12.208 28.5378 12.0075 27.8815 11.6064 27.3711C11.2054 26.8607 10.5947 26.6055 9.77441 26.6055ZM16.0752 29.0527C16.613 29.0527 17.0299 29.2396 17.3262 29.6133C17.6224 29.987 17.7705 30.502 17.7705 31.1582C17.7705 31.6276 17.6794 32.0947 17.4971 32.5596C17.3148 33.0199 17.0755 33.4391 16.7793 33.8174C16.4831 34.1956 16.1572 34.4987 15.8018 34.7266C15.4463 34.9544 15.0954 35.0684 14.749 35.0684C14.2021 35.0684 13.7852 34.8906 13.498 34.5352C13.2109 34.1797 13.0674 33.6738 13.0674 33.0176C13.0674 32.5436 13.1562 32.0742 13.334 31.6094C13.5163 31.14 13.7555 30.7139 14.0518 30.3311C14.348 29.9437 14.6715 29.6338 15.0225 29.4014C15.3779 29.1689 15.7288 29.0527 16.0752 29.0527ZM15.9111 29.6133C15.6833 29.6133 15.4622 29.7135 15.248 29.9141C15.0339 30.11 14.8402 30.3675 14.667 30.6865C14.4938 31.0055 14.3571 31.3542 14.2568 31.7324C14.1566 32.1107 14.1064 32.4798 14.1064 32.8398C14.1064 33.3685 14.1908 33.7786 14.3594 34.0703C14.528 34.362 14.7399 34.5078 14.9951 34.5078C15.223 34.5078 15.4395 34.4098 15.6445 34.2139C15.8542 34.0133 16.041 33.7536 16.2051 33.4346C16.3691 33.111 16.4967 32.7601 16.5879 32.3818C16.6836 32.0036 16.7314 31.6322 16.7314 31.2676C16.7314 30.7298 16.6585 30.3197 16.5127 30.0371C16.3669 29.7546 16.1663 29.6133 15.9111 29.6133ZM20.0107 26.168C20.1475 26.168 20.2637 26.2227 20.3594 26.332C20.4551 26.4414 20.5029 26.569 20.5029 26.7148C20.5029 26.9336 20.4323 27.125 20.291 27.2891C20.1497 27.4531 19.9743 27.5352 19.7646 27.5352C19.6188 27.5352 19.5049 27.4782 19.4229 27.3643C19.3408 27.2503 19.2998 27.1113 19.2998 26.9473C19.2998 26.7376 19.3682 26.5553 19.5049 26.4004C19.6416 26.2454 19.8102 26.168 20.0107 26.168ZM19.6143 29.0527C19.7601 29.0527 19.874 29.1188 19.9561 29.251C20.0381 29.3831 20.0791 29.554 20.0791 29.7637C20.0791 29.9505 20.0518 30.1921 19.9971 30.4883L19.3955 33.5508C19.3682 33.6602 19.3545 33.7741 19.3545 33.8926C19.3545 34.1204 19.4001 34.2344 19.4912 34.2344C19.6051 34.2344 19.7419 34.1546 19.9014 33.9951C20.0609 33.8311 20.1976 33.6921 20.3115 33.5781L20.3936 33.4824C20.4118 33.4824 20.446 33.5257 20.4961 33.6123C20.5462 33.6989 20.5713 33.7604 20.5713 33.7969C20.4938 33.929 20.3525 34.0977 20.1475 34.3027C19.9469 34.5078 19.7282 34.6901 19.4912 34.8496C19.2542 35.0046 19.04 35.082 18.8486 35.082C18.7028 35.082 18.5889 35.016 18.5068 34.8838C18.4248 34.7516 18.3838 34.5807 18.3838 34.3711C18.3838 34.2344 18.4157 33.9928 18.4795 33.6465L19.04 30.7891C19.0856 30.5202 19.1084 30.3379 19.1084 30.2422C19.1084 30.0143 19.0628 29.9004 18.9717 29.9004C18.917 29.9004 18.8418 29.9368 18.7461 30.0098C18.6549 30.0827 18.5661 30.1647 18.4795 30.2559C18.3929 30.3424 18.3291 30.4108 18.2881 30.4609L18.2197 30.543C18.2015 30.543 18.1673 30.4997 18.1172 30.4131C18.0671 30.3265 18.042 30.265 18.042 30.2285C18.1149 30.1055 18.2471 29.9528 18.4385 29.7705C18.6299 29.5837 18.835 29.4173 19.0537 29.2715C19.2725 29.1257 19.4593 29.0527 19.6143 29.0527ZM23.085 29.0117C23.6045 29.0117 24.0146 29.1849 24.3154 29.5312C24.361 29.6361 24.3838 29.7318 24.3838 29.8184C24.3838 29.9824 24.3405 30.1237 24.2539 30.2422C24.1673 30.3607 24.0557 30.4199 23.9189 30.4199C23.7959 30.4199 23.682 30.3538 23.5771 30.2217C23.4769 30.0895 23.3516 29.9551 23.2012 29.8184C23.0508 29.6816 22.8525 29.6133 22.6064 29.6133C22.415 29.6133 22.2646 29.6771 22.1553 29.8047C22.0459 29.9323 21.9912 30.0781 21.9912 30.2422C21.9912 30.4792 22.0801 30.7321 22.2578 31.001C22.4355 31.2699 22.6292 31.5091 22.8389 31.7188C23.0485 31.9284 23.2422 32.1836 23.4199 32.4844C23.5977 32.7852 23.6865 33.0905 23.6865 33.4004C23.6865 33.9017 23.5042 34.3073 23.1396 34.6172C22.7751 34.9271 22.3057 35.082 21.7314 35.082C21.2119 35.082 20.8018 34.9089 20.501 34.5625C20.4554 34.4896 20.4326 34.403 20.4326 34.3027C20.4326 34.1387 20.4759 33.9928 20.5625 33.8652C20.6491 33.7376 20.7607 33.6738 20.8975 33.6738C21.0205 33.6738 21.1344 33.7399 21.2393 33.8721C21.3395 34.0042 21.4648 34.1387 21.6152 34.2754C21.7656 34.4121 21.9639 34.4805 22.21 34.4805C22.4105 34.4805 22.5723 34.4144 22.6953 34.2822C22.8184 34.1501 22.8799 34.0065 22.8799 33.8516C22.8799 33.6146 22.791 33.3617 22.6133 33.0928C22.4355 32.8239 22.2419 32.5846 22.0322 32.375C21.8226 32.1654 21.6289 31.9102 21.4512 31.6094C21.2734 31.3086 21.1846 31.0033 21.1846 30.6934C21.1846 30.4382 21.2689 30.1807 21.4375 29.9209C21.6061 29.6611 21.834 29.4447 22.1211 29.2715C22.4082 29.0983 22.7295 29.0117 23.085 29.0117ZM25.626 29.0527C25.7718 29.0527 25.8857 29.1188 25.9678 29.251C26.0498 29.3831 26.0908 29.554 26.0908 29.7637C26.0908 29.9642 26.0635 30.2057 26.0088 30.4883L25.7627 31.7461C25.8493 31.5911 26.0475 31.3086 26.3574 30.8984C26.5625 30.6296 26.7995 30.3538 27.0684 30.0713C27.3418 29.7842 27.6107 29.5426 27.875 29.3467C28.1439 29.1507 28.3695 29.0527 28.5518 29.0527C29.0075 29.0527 29.2354 29.3535 29.2354 29.9551C29.2354 30.3789 29.1715 30.8757 29.0439 31.4453L28.5928 33.5508C28.5654 33.6602 28.5518 33.7741 28.5518 33.8926C28.5518 34.1204 28.5973 34.2344 28.6885 34.2344C28.8024 34.2344 28.9391 34.1546 29.0986 33.9951C29.2581 33.8311 29.3949 33.6921 29.5088 33.5781L29.5908 33.4824C29.609 33.4824 29.6432 33.5257 29.6934 33.6123C29.7435 33.6989 29.7686 33.7604 29.7686 33.7969C29.6911 33.929 29.5498 34.0977 29.3447 34.3027C29.1442 34.5078 28.9255 34.6901 28.6885 34.8496C28.4515 35.0046 28.2373 35.082 28.0459 35.082C27.9001 35.082 27.7861 35.016 27.7041 34.8838C27.6221 34.7516 27.5811 34.5807 27.5811 34.3711C27.5811 34.2344 27.613 33.9928 27.6768 33.6465L28.1553 31.3906C28.2191 31.0807 28.251 30.8346 28.251 30.6523C28.251 30.2604 28.1644 30.0645 27.9912 30.0645C27.8408 30.0645 27.638 30.1784 27.3828 30.4062C27.1276 30.6296 26.861 30.9281 26.583 31.3018C26.3096 31.6755 26.0612 32.0924 25.8379 32.5527C25.6146 33.0085 25.4574 33.4688 25.3662 33.9336L25.1338 35C25.0107 35.0365 24.8695 35.0547 24.71 35.0547C24.555 35.0547 24.4001 35.0365 24.2451 35L25.0518 30.7891C25.0973 30.4746 25.1201 30.2923 25.1201 30.2422C25.1201 30.0143 25.0745 29.9004 24.9834 29.9004C24.9059 29.9004 24.7897 29.9733 24.6348 30.1191C24.5618 30.1921 24.4821 30.2718 24.3955 30.3584C24.3135 30.445 24.2588 30.5065 24.2314 30.543C24.2132 30.543 24.179 30.4997 24.1289 30.4131C24.0788 30.3265 24.0537 30.265 24.0537 30.2285C24.1266 30.1055 24.2588 29.9528 24.4502 29.7705C24.6416 29.5837 24.8467 29.4173 25.0654 29.2715C25.2842 29.1257 25.471 29.0527 25.626 29.0527ZM32.6104 29.0527C33.0296 29.0527 33.3327 29.1598 33.5195 29.374C33.7064 29.5882 33.7998 29.8229 33.7998 30.0781C33.7998 30.4792 33.5947 30.8757 33.1846 31.2676C32.9111 31.5273 32.6172 31.7507 32.3027 31.9375C31.9883 32.1198 31.6852 32.2588 31.3936 32.3545C31.1019 32.4502 30.8558 32.498 30.6553 32.498C30.6188 32.498 30.6006 32.6576 30.6006 32.9766C30.6006 33.3867 30.6803 33.6989 30.8398 33.9131C30.9993 34.1273 31.2158 34.2344 31.4893 34.2344C31.6032 34.2344 31.7399 34.2025 31.8994 34.1387C32.0589 34.0749 32.182 34.0065 32.2686 33.9336C32.3597 33.8561 32.4098 33.8151 32.4189 33.8105C32.4281 33.806 32.4463 33.7923 32.4736 33.7695C32.501 33.7422 32.583 33.6602 32.7197 33.5234L32.7607 33.4824C32.779 33.4824 32.8132 33.5257 32.8633 33.6123C32.9134 33.6989 32.9385 33.7604 32.9385 33.7969C32.8564 33.9427 32.7106 34.1182 32.501 34.3232C32.2959 34.5238 32.0635 34.7015 31.8037 34.8564C31.5439 35.0068 31.2887 35.082 31.0381 35.082C30.5641 35.082 30.2018 34.8975 29.9512 34.5283C29.7005 34.1592 29.5752 33.651 29.5752 33.0039C29.5752 32.5664 29.6663 32.1175 29.8486 31.6572C30.0309 31.1924 30.2725 30.764 30.5732 30.3721C30.874 29.9801 31.2021 29.6634 31.5576 29.4219C31.9131 29.1758 32.264 29.0527 32.6104 29.0527ZM32.4736 29.6133C32.2594 29.6133 32.0475 29.7021 31.8379 29.8799C31.6283 30.0576 31.4368 30.2764 31.2637 30.5361C31.0905 30.7959 30.9515 31.0579 30.8467 31.3223C30.7464 31.582 30.6963 31.7962 30.6963 31.9648C30.6963 32.0013 30.7145 32.0195 30.751 32.0195C30.915 32.0195 31.1133 31.9603 31.3457 31.8418C31.5781 31.7188 31.806 31.5592 32.0293 31.3633C32.2526 31.1673 32.4395 30.9531 32.5898 30.7207C32.7402 30.4837 32.8154 30.2513 32.8154 30.0234C32.8154 29.75 32.7015 29.6133 32.4736 29.6133ZM37.3252 29.0527C37.6624 29.0527 37.9951 29.112 38.3232 29.2305L37.4893 33.5508C37.4619 33.6602 37.4482 33.7741 37.4482 33.8926C37.4482 34.1204 37.4938 34.2344 37.585 34.2344C37.6989 34.2344 37.8356 34.1546 37.9951 33.9951C38.1546 33.8311 38.2913 33.6921 38.4053 33.5781L38.4873 33.4824C38.5055 33.4824 38.5397 33.5257 38.5898 33.6123C38.64 33.6989 38.665 33.7604 38.665 33.7969C38.5876 33.929 38.4463 34.0977 38.2412 34.3027C38.0407 34.5078 37.8219 34.6901 37.585 34.8496C37.348 35.0046 37.1338 35.082 36.9424 35.082C36.7965 35.082 36.6826 35.016 36.6006 34.8838C36.5186 34.7516 36.4775 34.5807 36.4775 34.3711C36.4775 34.2298 36.5094 33.9883 36.5732 33.6465L36.6211 33.4072C36.6348 33.3434 36.6416 33.3047 36.6416 33.291C36.5687 33.4277 36.4639 33.5964 36.3271 33.7969C36.1904 33.9928 36.0332 34.1888 35.8555 34.3848C35.6777 34.5807 35.4909 34.7448 35.2949 34.877C35.099 35.0046 34.9053 35.0684 34.7139 35.0684C34.3128 35.0684 33.9961 34.8883 33.7637 34.5283C33.5312 34.1683 33.415 33.7331 33.415 33.2227C33.415 32.571 33.6087 31.9215 33.9961 31.2744C34.2559 30.8369 34.5658 30.4518 34.9258 30.1191C35.2904 29.7865 35.68 29.5267 36.0947 29.3398C36.5094 29.1484 36.9196 29.0527 37.3252 29.0527ZM36.751 29.6816C36.4821 29.6816 36.2109 29.7773 35.9375 29.9688C35.6641 30.1556 35.4134 30.4085 35.1855 30.7275C34.9577 31.042 34.7731 31.3929 34.6318 31.7803C34.4951 32.1631 34.4268 32.5482 34.4268 32.9355C34.4268 33.8288 34.6592 34.2754 35.124 34.2754C35.2881 34.2754 35.4658 34.1842 35.6572 34.002C35.8486 33.8197 36.0378 33.5781 36.2246 33.2773C36.4115 32.9766 36.5755 32.6507 36.7168 32.2998C36.8626 31.9443 36.9697 31.5957 37.0381 31.2539L37.3115 29.8594C37.2021 29.7409 37.0153 29.6816 36.751 29.6816ZM40.1396 29.0527C40.2855 29.0527 40.3994 29.1188 40.4814 29.251C40.5635 29.3831 40.6045 29.554 40.6045 29.7637C40.6045 30.0052 40.5771 30.2467 40.5225 30.4883L40.0439 32.7441C39.9801 33.0221 39.9482 33.2682 39.9482 33.4824C39.9482 33.8743 40.0348 34.0703 40.208 34.0703C40.3083 34.0703 40.4313 34.0133 40.5771 33.8994C40.7275 33.7855 40.8825 33.6396 41.042 33.4619C41.2061 33.2842 41.3587 33.1019 41.5 32.915C41.7598 32.5732 42.0059 32.1562 42.2383 31.6641C42.4707 31.1719 42.6325 30.6842 42.7236 30.2012L42.9561 29.1348C43.0791 29.0983 43.2204 29.0801 43.3799 29.0801C43.5348 29.0801 43.6898 29.0983 43.8447 29.1348L42.9971 33.5508C42.9697 33.6602 42.9561 33.7741 42.9561 33.8926C42.9561 34.1204 43.0016 34.2344 43.0928 34.2344C43.2067 34.2344 43.3434 34.1546 43.5029 33.9951C43.6624 33.8311 43.7992 33.6921 43.9131 33.5781L43.9951 33.4824C44.0133 33.4824 44.0475 33.5257 44.0977 33.6123C44.1478 33.6989 44.1729 33.7604 44.1729 33.7969C44.0954 33.929 43.9541 34.0977 43.749 34.3027C43.5485 34.5078 43.3298 34.6901 43.0928 34.8496C42.8558 35.0046 42.6416 35.082 42.4502 35.082C42.3044 35.082 42.1904 35.016 42.1084 34.8838C42.0264 34.7516 41.9854 34.5807 41.9854 34.3711C41.9854 34.2344 42.0173 33.9928 42.0811 33.6465L42.3271 32.3887C42.2406 32.5527 42.0537 32.8353 41.7666 33.2363C41.5798 33.4961 41.3542 33.7695 41.0898 34.0566C40.8301 34.3438 40.5703 34.5876 40.3105 34.7881C40.0508 34.984 39.8298 35.082 39.6475 35.082C39.1917 35.082 38.9639 34.7812 38.9639 34.1797C38.9639 33.7513 39.0277 33.2546 39.1553 32.6895L39.5654 30.7891C39.611 30.4746 39.6338 30.2923 39.6338 30.2422C39.6338 30.0143 39.5882 29.9004 39.4971 29.9004C39.4196 29.9004 39.3034 29.9733 39.1484 30.1191C39.0755 30.1921 38.9958 30.2718 38.9092 30.3584C38.8271 30.445 38.7725 30.5065 38.7451 30.543C38.7269 30.543 38.6927 30.4997 38.6426 30.4131C38.5924 30.3265 38.5674 30.265 38.5674 30.2285C38.6403 30.1055 38.7725 29.9528 38.9639 29.7705C39.1553 29.5837 39.3604 29.4173 39.5791 29.2715C39.7979 29.1257 39.9847 29.0527 40.1396 29.0527Z" fill="#052444"/>
</svg>
