<svg width="135" height="28" viewBox="0 0 135 28" fill="none" xmlns="http://www.w3.org/2000/svg">
<rect width="135" height="28" rx="3" fill="#F0EAE0"/>
<path d="M8.07001 9.9H11.593V19H10.202V15.022H7.25101V19H5.87301V12.175L8.07001 9.9ZM7.25101 12.565V13.735H10.202V11.187H8.57701L7.25101 12.565ZM15.5249 9.9H20.8029L21.5049 10.901V12.227L20.1269 13.67H20.3349L21.6219 15.568V18.285L20.4649 19H15.5249V9.9ZM16.9159 11.187V13.67H18.3329L20.1009 11.824V11.187H16.9159ZM16.9159 14.957V17.713H20.2439V15.776L19.6589 14.957H16.9159ZM26.4379 9.9H30.2859L31.1179 11.161L30.1819 12.071L29.5839 11.187H26.9709L26.6849 11.499V13.072L27.1269 13.696H30.4029L31.4039 15.204V17.947L30.3899 19H25.9439L25.2419 17.999L26.1389 17.063L26.6199 17.713H29.8049L30.0129 17.544V15.425L29.7009 14.996H26.4249L25.2939 13.319V11.096L26.4379 9.9ZM36.2198 9.9H40.0678L41.1728 11.577V17.804L40.0418 19H36.2068L35.0628 17.323V11.096L36.2198 9.9ZM36.4668 17.089L36.8828 17.713H39.4698L39.7688 17.388V11.811L39.3528 11.187H36.7528L36.4668 11.512V17.089ZM44.8577 9.9H46.2487V17.063L46.6907 17.7H49.5767V16.764H50.9677V19H46.0017L44.8577 17.271V9.9ZM59.3716 9.9H60.7626V19H59.3716V18.493L58.5396 19H55.7836L54.6526 17.323V9.9H56.0436V17.076L56.4596 17.713H59.0596L59.3716 17.388V9.9ZM64.1095 9.9H70.8955V11.187H67.2945L68.2045 11.915V19H66.8135V12.201L66.3975 11.187H64.1095V9.9ZM75.3085 9.9H80.2615V11.187H75.8415L75.5425 11.512V13.67H78.5585V14.97H75.5425V17.076L75.9715 17.713H80.2615V19H75.2825L74.1515 17.323V11.083L75.3085 9.9ZM85.4674 9.549H88.4834L89.2894 10.719V11.486L87.1964 13.657L88.8344 16.101L89.3674 15.529H88.9254V14.242H90.9274V15.815L89.5624 17.206L90.8104 19H89.2504L88.6524 18.129L87.8334 19H84.1674L83.2574 17.661V15.867L85.5324 13.501L84.3104 11.694V10.758L85.4674 9.549ZM85.5844 11.291L86.4554 12.552L87.9504 11.031L87.8334 10.836H86.0264L85.5844 11.291ZM84.6484 17.414L84.8434 17.713H87.3004L87.9244 17.05L86.2604 14.606L84.6484 16.283V17.414ZM95.1843 9.9H98.9933L99.9813 11.395L99.0713 12.357L98.3173 11.2H95.7043L95.4183 11.512V17.076L95.8343 17.713H98.4213L99.2923 16.829L100.007 17.908L98.9673 19H95.1453L94.0273 17.323V11.07L95.1843 9.9ZM104.784 9.9H108.632L109.737 11.577V17.804L108.606 19H104.771L103.627 17.323V11.096L104.784 9.9ZM105.031 17.089L105.447 17.713H108.034L108.333 17.388V11.811L107.917 11.187H105.317L105.031 11.512V17.089ZM113.552 9.9H117.829L119.662 12.63V17.817L118.531 19H113.552V9.9ZM114.943 11.187V17.713H117.959L118.271 17.401V12.877L117.127 11.187H114.943ZM124.283 9.9H129.236V11.187H124.816L124.517 11.512V13.67H127.533V14.97H124.517V17.076L124.946 17.713H129.236V19H124.257L123.126 17.323V11.083L124.283 9.9Z" fill="#303D3C"/>
</svg>
