<svg width="135" height="28" viewBox="0 0 135 28" fill="none" xmlns="http://www.w3.org/2000/svg">
<mask id="mask0_202_233" style="mask-type:luminance" maskUnits="userSpaceOnUse" x="0" y="0" width="135" height="28">
<path d="M132 0H3C1.34315 0 0 1.34315 0 3V25C0 26.6569 1.34315 28 3 28H132C133.657 28 135 26.6569 135 25V3C135 1.34315 133.657 0 132 0Z" fill="white"/>
</mask>
<g mask="url(#mask0_202_233)">
<path d="M132 -1.52588e-05H3C1.34315 -1.52588e-05 0 1.34313 0 2.99998V25C0 26.6568 1.34315 28 3 28H132C133.657 28 135 26.6568 135 25V2.99998C135 1.34313 133.657 -1.52588e-05 132 -1.52588e-05Z" fill="white"/>
<path d="M0.0714111 2.99999C0.0714111 1.34313 1.41456 -1.52588e-05 3.07141 -1.52588e-05H34.3214C35.9783 -1.52588e-05 37.3214 1.34313 37.3214 2.99998V19.6645C37.3214 21.3213 35.9782 22.6645 34.3214 22.6645H3.07141C1.41456 22.6645 0.0714111 21.3213 0.0714111 19.6645V2.99999Z" fill="white"/>
<path d="M36.9822 2.99999C36.9822 1.34313 38.3253 -1.52588e-05 39.9822 -1.52588e-05H132C133.657 -1.52588e-05 135 1.34313 135 2.99998V19.6645C135 21.3213 133.657 22.6645 132 22.6645H39.9822C38.3253 22.6645 36.9822 21.3213 36.9822 19.6645V2.99999Z" fill="#C51821"/>
<path d="M0.0714111 0.255487C0.0714111 0.114377 0.185803 -1.52588e-05 0.326913 -1.52588e-05H134.744C134.886 -1.52588e-05 135 0.114377 135 0.255487C135 0.396596 134.886 0.510988 134.744 0.510988H0.326917C0.185807 0.510988 0.0714111 0.396596 0.0714111 0.255487ZM0.0714111 22.394C0.0714111 22.2529 0.185807 22.1385 0.326921 22.1385H134.744C134.886 22.1385 135 22.2529 135 22.394C135 22.5351 134.886 22.6495 134.744 22.6495H0.326917C0.185803 22.6495 0.0714111 22.5351 0.0714111 22.394Z" fill="#1D1D1B"/>
<path d="M0.392804 22.6495C0.225147 22.6495 0.0892334 22.5136 0.0892334 22.3459V0.28854C0.0892334 0.120883 0.225147 -0.0150299 0.392804 -0.0150299C0.560461 -0.0150299 0.696375 0.120883 0.696375 0.288541V22.3459C0.696375 22.5136 0.560461 22.6495 0.392804 22.6495ZM134.696 22.6645C134.529 22.6645 134.393 22.5286 134.393 22.3609V0.303646C134.393 0.135947 134.529 -3.79816e-07 134.696 -3.79816e-07C134.864 -3.79816e-07 135 0.135946 135 0.303645V22.3609C135 22.5286 134.864 22.6645 134.696 22.6645Z" fill="#1D1D1B"/>
<path d="M4.08923 5.27059C4.08923 4.84158 4.43702 4.49379 4.86603 4.49379C5.29504 4.49379 5.64283 4.84158 5.64283 5.27059V17.3788C5.64283 17.8078 5.29504 18.1556 4.86603 18.1556C4.43702 18.1556 4.08923 17.8078 4.08923 17.3788V5.27059ZM7.26781 5.04989C7.26781 4.74277 7.51679 4.49379 7.82391 4.49379H19.5867C19.8938 4.49379 20.1428 4.74277 20.1428 5.04989C20.1428 5.35702 19.8938 5.60599 19.5867 5.60599H17.3124C15.7493 5.60599 14.4821 6.87318 14.4821 8.43635V17.3789C14.4821 17.8079 14.1343 18.1556 13.7053 18.1556C13.2763 18.1556 12.9285 17.8079 12.9285 17.3789V8.43635C12.9285 6.87318 11.6613 5.60599 10.0982 5.60599H7.82391C7.51679 5.60599 7.26781 5.35702 7.26781 5.04989ZM22.1964 13.6618C22.1765 13.6618 22.1602 13.6783 22.1599 13.6982C22.1101 16.4797 24.5128 17.329 27.4642 17.329C30.4285 17.329 31.7678 16.5475 31.7678 14.5486C31.7678 12.5496 29.9285 12.3843 28.4285 12.0837L24.8214 11.3323C22.9107 10.9264 21.1607 10.1599 21.1607 8.04076C21.1607 5.92161 22.1785 4.19322 26.7499 4.19322C30.8693 4.19322 32.4512 5.37702 32.7107 7.65663C32.7602 8.09143 32.3967 8.44657 31.9591 8.44657C31.5327 8.44657 31.1953 8.10383 31.0695 7.69642C30.5784 6.10573 28.7614 5.30538 26.7678 5.30538C24.4821 5.30538 22.6964 5.99676 22.6964 8.02575C22.6964 10.0547 23.8392 9.84429 25.1607 10.1148L29.125 10.9415C31.4285 11.4525 33.3392 12.2941 33.3392 14.5335C33.3392 16.7729 32.8928 18.4412 27.1249 18.4412C22.3508 18.4412 20.9166 17.4424 20.6654 15.2147C20.5678 14.349 21.3252 13.6618 22.1964 13.6618Z" fill="#C51821"/>
<path d="M36.9822 22.394C36.8145 22.394 36.6786 22.2581 36.6786 22.0904V0.559058C36.6786 0.391403 36.8145 0.255493 36.9822 0.255493C37.1498 0.255493 37.2857 0.391405 37.2857 0.55906V22.0904C37.2857 22.2581 37.1498 22.394 36.9822 22.394Z" fill="#1D1D1B"/>
<path d="M45.5966 5.5609C45.8755 5.5609 46.1293 5.72219 46.2477 5.97474L51.1052 16.3328C51.2308 16.6007 51.0354 16.9082 50.7396 16.9082C50.5826 16.9082 50.4399 16.8173 50.3736 16.675L49.5935 15.0028C49.1007 13.9464 48.0405 13.2711 46.8748 13.2711H44.2418C43.0804 13.2711 42.0234 13.9414 41.5282 14.9919L40.7337 16.6774C40.6673 16.8183 40.5255 16.9082 40.3697 16.9082C40.0739 16.9082 39.8793 16.5997 40.0066 16.3327L44.9474 5.97057C45.0667 5.72029 45.3193 5.5609 45.5966 5.5609ZM45.5761 12.6699C46.9559 12.6699 47.876 11.246 47.309 9.98812L45.6325 6.26866C45.628 6.25869 45.6181 6.25227 45.6072 6.25227C45.5964 6.25227 45.5866 6.25853 45.582 6.26831L43.8543 9.96423C43.2651 11.2245 44.185 12.6699 45.5761 12.6699ZM52.3573 5.5609C52.5546 5.5609 52.7145 5.72081 52.7145 5.91806V16.551C52.7145 16.7483 52.5546 16.9082 52.3573 16.9082C52.1601 16.9082 52.0002 16.7483 52.0002 16.551V5.91806C52.0002 5.72081 52.1601 5.5609 52.3573 5.5609ZM58.1785 8.99515C58.1785 9.14041 58.0608 9.25817 57.9155 9.25817H57.1251C56.5433 9.25817 56.0716 9.72981 56.0716 10.3116V14.9544C56.0716 16.1853 56.7059 16.3748 57.8877 16.3709C58.0373 16.3704 58.1607 16.4902 58.1607 16.6398C58.1607 16.7818 58.0494 16.8994 57.9075 16.9035C56.5363 16.9436 55.2729 16.6962 55.3573 14.9544V10.1511C55.3573 9.65793 54.9575 9.25817 54.4644 9.25817H53.8345C53.6893 9.25817 53.5715 9.14041 53.5715 8.99515C53.5715 8.8499 53.6893 8.73214 53.8345 8.73214H54.4644C54.9575 8.73214 55.3573 8.33237 55.3573 7.83924V6.54929C55.3573 6.35204 55.5172 6.19213 55.7145 6.19213C55.9117 6.19213 56.0716 6.35204 56.0716 6.54929V7.67869C56.0716 8.2605 56.5433 8.73214 57.1251 8.73214H57.9155C58.0608 8.73214 58.1785 8.8499 58.1785 8.99515ZM63.1249 8.55178C65.9822 8.55178 67.5714 10.5056 67.5714 12.8202C67.5714 15.1347 65.9643 17.0885 63.1249 17.0885C60.2858 17.0885 58.6788 15.1347 58.6788 12.8202C58.6788 10.5056 60.2858 8.55178 63.1249 8.55178ZM63.1249 16.5776C65.5537 16.5776 66.857 14.789 66.857 12.8352C66.857 10.8813 65.5537 9.09286 63.1249 9.09286C60.6965 9.09286 59.3927 10.8813 59.3927 12.8352C59.3927 14.789 60.6965 16.5776 63.1249 16.5776ZM73.4538 5.5609C73.7326 5.5609 73.9863 5.72212 74.1047 5.97457L78.9622 16.3328C79.0878 16.6007 78.8924 16.9082 78.5966 16.9082C78.4397 16.9082 78.2969 16.8173 78.2306 16.675L77.4505 15.0028C76.9577 13.9464 75.8975 13.2711 74.7318 13.2711H72.099C70.9375 13.2711 69.8804 13.9415 69.3853 14.9922L68.5911 16.6773C68.5247 16.8182 68.3829 16.9082 68.227 16.9082C67.9311 16.9082 67.7364 16.5996 67.8637 16.3324L72.8049 5.97037C72.9242 5.72021 73.1767 5.5609 73.4538 5.5609ZM73.4511 12.6699C74.831 12.6699 75.7511 11.2459 75.184 9.98792L73.5074 6.26866C73.5029 6.25869 73.493 6.25227 73.482 6.25227C73.4712 6.25227 73.4614 6.25853 73.4568 6.26831L71.7292 9.96412C71.14 11.2244 72.0599 12.6699 73.4511 12.6699ZM87.1788 15.1648C87.1788 15.1565 87.1721 15.1497 87.1638 15.1497H87.1557C87.1476 15.1497 87.1401 15.154 87.1359 15.1609C86.3501 16.446 85.1557 17.0885 83.4288 17.0885C80.5002 17.0885 79.232 15.0896 79.232 12.8352C79.232 10.5808 80.625 8.55178 83.5537 8.55178C86.4719 8.55178 86.624 9.28298 87.1372 10.5521C87.1405 10.5602 87.1485 10.5657 87.1572 10.5657C87.1691 10.5657 87.1788 10.5561 87.1788 10.5442V5.91786C87.1788 5.72071 87.3386 5.5609 87.5358 5.5609C87.7329 5.5609 87.8927 5.72071 87.8927 5.91786V16.5512C87.8927 16.7484 87.7329 16.9082 87.5358 16.9082C87.3386 16.9082 87.1788 16.7484 87.1788 16.5512V15.1648ZM87.1606 12.8352C87.1606 10.9264 86.0538 9.07781 83.5537 9.07781C81.0535 9.07781 79.9464 10.8663 79.9464 12.8352C79.9464 14.8041 81.0714 16.5625 83.5715 16.5625C86.0716 16.5625 87.1606 14.6989 87.1606 12.8352ZM90.5177 10.5357C90.5177 10.544 90.5245 10.5507 90.5328 10.5507H90.5493C90.5627 10.5507 90.5745 10.5424 90.5792 10.5298C90.9465 9.52963 92.3799 8.71937 94.005 8.68518C94.1614 8.68189 94.2856 8.81106 94.2856 8.96746C94.2856 9.13919 94.1372 9.27258 93.9655 9.27095C93.2537 9.26422 92.3638 9.46103 91.607 10.0848C90.8927 10.701 90.5895 11.212 90.5177 12.4294V16.5362C90.5177 16.7334 90.3579 16.8932 90.1608 16.8932C89.9636 16.8932 89.8038 16.7334 89.8038 16.5362V9.0891C89.8038 8.89196 89.9636 8.73214 90.1608 8.73214C90.3579 8.73214 90.5177 8.89196 90.5177 9.0891V10.5357ZM95.1965 7.19912C94.9992 7.19912 94.8393 7.03921 94.8393 6.84196V5.91806C94.8393 5.72081 94.9992 5.5609 95.1965 5.5609C95.3938 5.5609 95.5537 5.72081 95.5537 5.91806V6.84196C95.5537 7.03921 95.3938 7.19912 95.1965 7.19912ZM95.1965 16.9082C94.9992 16.9082 94.8393 16.7483 94.8393 16.551V9.10431C94.8393 8.90706 94.9992 8.74715 95.1965 8.74715C95.3938 8.74715 95.5537 8.90706 95.5537 9.10431V16.551C95.5537 16.7483 95.3938 16.9082 95.1965 16.9082ZM104.625 15.3902C104.625 15.8712 104.625 16.3822 105.268 16.3822C105.379 16.3822 105.461 16.3817 105.522 16.3808C105.675 16.3785 105.804 16.4732 105.804 16.6268C105.804 16.7537 105.71 16.8622 105.584 16.879C105.459 16.8958 105.34 16.9082 105.214 16.9082C104.089 16.9082 103.911 16.3822 103.911 15.7209V15.3068C103.911 15.2947 103.901 15.285 103.889 15.285C103.88 15.285 103.873 15.2898 103.869 15.2975C103.417 16.2542 102.117 17.0885 100.268 17.0885C98.4106 17.0885 97.018 16.5024 97.018 14.789C97.018 13.0756 98.9822 12.4895 100.589 12.3693C103.804 12.1739 103.929 12.0086 103.929 10.6709C103.929 9.33332 103.447 9.0628 101.232 9.0628C99.2 9.0628 98.4613 9.70835 98.2845 10.9065C98.2569 11.094 98.1025 11.2421 97.913 11.2421C97.7077 11.2421 97.542 11.0692 97.5745 10.8665C97.8218 9.32533 99.1124 8.53674 101.232 8.53674C103.518 8.53674 104.625 8.98765 104.625 10.6709V15.3902ZM103.893 13.7821C103.893 13.2088 103.04 12.6581 102.47 12.7238C101.834 12.7971 101.088 12.8193 100.375 12.8953C98.6785 13.0606 97.7145 13.5566 97.7145 14.789C97.7145 16.0214 98.5715 16.5625 100.268 16.5625C103.536 16.5625 103.893 14.2179 103.893 13.7821ZM110.089 8.99515C110.089 9.14041 109.972 9.25817 109.826 9.25817H109.036C108.454 9.25817 107.982 9.7299 107.982 10.3118V14.9544C107.982 16.1854 108.616 16.3748 109.799 16.3709C109.948 16.3704 110.072 16.4902 110.072 16.6398C110.072 16.7818 109.96 16.8994 109.818 16.9035C108.447 16.9436 107.184 16.6962 107.268 14.9544V10.1511C107.268 9.65793 106.868 9.25817 106.375 9.25817H105.745C105.6 9.25817 105.482 9.14041 105.482 8.99515C105.482 8.8499 105.6 8.73214 105.745 8.73214H106.375C106.868 8.73214 107.268 8.33237 107.268 7.83924V6.54929C107.268 6.35204 107.428 6.19213 107.625 6.19213C107.822 6.19213 107.982 6.35204 107.982 6.54929V7.67849C107.982 8.26041 108.454 8.73214 109.036 8.73214H109.826C109.972 8.73214 110.089 8.8499 110.089 8.99515ZM111.554 7.19912C111.356 7.19912 111.197 7.03931 111.197 6.84217V5.91785C111.197 5.72071 111.356 5.5609 111.554 5.5609C111.751 5.5609 111.911 5.72071 111.911 5.91785V6.84217C111.911 7.03931 111.751 7.19912 111.554 7.19912ZM111.554 16.9082C111.356 16.9082 111.197 16.7484 111.197 16.5512V9.1041C111.197 8.90696 111.356 8.74715 111.554 8.74715C111.751 8.74715 111.911 8.90696 111.911 9.1041V16.5512C111.911 16.7484 111.751 16.9082 111.554 16.9082ZM121.446 11.2721C121.265 11.2721 121.116 11.1316 121.075 10.9547C120.783 9.71925 119.456 9.07781 117.839 9.07781C116.089 9.07781 114.107 10.8813 114.107 12.745C114.107 14.6087 115.339 16.5776 117.839 16.5776C120.172 16.5776 120.872 15.6619 121.158 14.331C121.195 14.1625 121.34 14.0375 121.513 14.0375C121.731 14.0375 121.898 14.2339 121.839 14.4436C121.365 16.1447 119.779 17.1036 117.839 17.1036C114.697 17.1036 113.393 15.0295 113.393 12.745C113.393 10.4605 114.982 8.55178 117.839 8.55178C120.49 8.55178 121.48 9.28889 121.781 10.883C121.82 11.0888 121.656 11.2721 121.446 11.2721ZM127.232 8.55178C130.089 8.55178 131.679 10.5056 131.679 12.8202C131.679 15.1347 130.071 17.0885 127.232 17.0885C124.393 17.0885 122.786 15.1347 122.786 12.8202C122.786 10.5056 124.393 8.55178 127.232 8.55178ZM127.232 16.5776C129.661 16.5776 130.964 14.789 130.964 12.8352C130.964 10.8813 129.661 9.09286 127.232 9.09286C124.804 9.09286 123.5 10.8813 123.5 12.8352C123.5 14.789 124.804 16.5776 127.232 16.5776Z" fill="white"/>
<path d="M68.9465 24.6326C68.9465 24.4255 69.1144 24.2576 69.3215 24.2576C69.5286 24.2576 69.6965 24.4255 69.6965 24.6326V24.9865C69.6965 25.3891 70.0229 25.7155 70.4255 25.7155H70.9318C71.3344 25.7155 71.6607 25.3891 71.6607 24.9865V24.6326C71.6607 24.4255 71.8286 24.2576 72.0357 24.2576C72.2428 24.2576 72.4107 24.4255 72.4107 24.6326V27.5348C72.4107 27.7419 72.2428 27.9098 72.0357 27.9098C71.8286 27.9098 71.6607 27.7419 71.6607 27.5348V27.0907C71.6607 26.6383 71.294 26.2716 70.8416 26.2716H70.5156C70.0633 26.2716 69.6965 26.6383 69.6965 27.0907V27.5348C69.6965 27.7419 69.5286 27.9098 69.3215 27.9098C69.1144 27.9098 68.9465 27.7419 68.9465 27.5348V24.6326ZM73.2499 24.2576C73.6641 24.2576 73.9999 24.5934 73.9999 25.0076V26.3768C73.9999 26.8728 74.0356 27.4289 75.0179 27.4289C76.0002 27.4289 76.0359 26.8577 76.0359 26.3768V24.6326C76.0359 24.4255 76.2038 24.2576 76.4109 24.2576C76.618 24.2576 76.7859 24.4255 76.7859 24.6326V26.5872C76.7859 27.519 76.0715 27.9849 75 27.9849C73.9286 27.9849 73.2142 27.519 73.2142 26.5872V24.2933C73.2142 24.2736 73.2302 24.2576 73.2499 24.2576ZM77.5894 24.2576H77.9939C78.3979 24.2576 78.7639 24.5035 78.92 24.8761C79.2632 25.6953 80.4311 25.7012 80.7656 24.8783L80.8583 24.6503C80.9548 24.4129 81.1855 24.2576 81.4417 24.2576C81.7896 24.2576 82.0715 24.5396 82.0715 24.8874V27.5526C82.0715 27.7499 81.9116 27.9098 81.7144 27.9098C81.5171 27.9098 81.3572 27.7499 81.3572 27.5526V27.4336C81.3572 26.9152 80.646 26.7701 80.4429 27.2471L80.2833 27.6222C80.209 27.7966 80.0378 27.9098 79.8483 27.9098C79.6588 27.9098 79.4875 27.7966 79.4133 27.6222L79.2537 27.2471C79.0506 26.7701 78.3394 26.9152 78.3394 27.4336V27.5526C78.3394 27.7499 78.1795 27.9098 77.9822 27.9098C77.785 27.9098 77.6251 27.7499 77.6251 27.5526V24.2933C77.6251 24.2736 77.6091 24.2576 77.5894 24.2576ZM84.1249 24.2576C84.6143 24.2576 85.0585 24.5436 85.2611 24.989L86.3508 27.3852C86.4625 27.6308 86.2829 27.9098 86.013 27.9098C85.8644 27.9098 85.7302 27.8211 85.6718 27.6844L85.5627 27.4289C85.4381 27.1372 85.1516 26.9479 84.8344 26.9479H84.148C83.8308 26.9479 83.5442 27.1372 83.4197 27.4289L83.3064 27.6942C83.2506 27.825 83.1221 27.9098 82.98 27.9098C82.7218 27.9098 82.55 27.6429 82.6569 27.4079L84.0745 24.2901C84.0835 24.2703 84.1032 24.2576 84.1249 24.2576ZM84.1158 25.8403C83.9931 26.1305 84.2062 26.4519 84.5214 26.4519C84.8347 26.4519 85.0477 26.1339 84.9285 25.8441L84.539 24.8972C84.5369 24.8922 84.532 24.8889 84.5266 24.8889C84.5212 24.8889 84.5164 24.8921 84.5143 24.8971L84.1158 25.8403ZM86.9465 24.7914C86.9465 24.4966 87.1855 24.2576 87.4803 24.2576C87.6499 24.2576 87.8094 24.3382 87.91 24.4748L88.531 25.3177C88.912 25.8348 89.7321 25.5653 89.7321 24.923V24.6148C89.7321 24.4175 89.892 24.2576 90.0892 24.2576C90.2865 24.2576 90.4464 24.4175 90.4464 24.6148V27.3764C90.4464 27.671 90.2076 27.9098 89.913 27.9098C89.7432 27.9098 89.5835 27.8289 89.483 27.6921L87.6822 25.2394C87.68 25.2363 87.6765 25.2346 87.6727 25.2346C87.6662 25.2346 87.6609 25.2399 87.6609 25.2464V27.5526C87.6609 27.7499 87.501 27.9098 87.3037 27.9098C87.1064 27.9098 86.9465 27.7499 86.9465 27.5526V24.7914Z" fill="#C51821"/>
<path d="M95.9286 25.4018C95.9286 25.404 95.9255 25.4044 95.9248 25.4023C95.7969 24.9881 95.4759 24.6935 94.8393 24.6935C93.9105 24.6935 93.5177 25.3849 93.5177 26.0762C93.5177 26.7676 93.9105 27.4589 94.8393 27.4589C95.5705 27.4589 95.7924 27.1979 95.8886 26.8227C95.9356 26.6392 96.088 26.497 96.2774 26.497C96.4949 26.497 96.6723 26.6838 96.6023 26.8898C96.3802 27.5442 95.711 27.9699 94.8393 27.9699C93.8035 27.9699 92.7677 27.0982 92.7677 26.0612C92.7677 25.0241 93.5534 24.1524 94.8393 24.1524C95.6499 24.1524 96.3145 24.4697 96.5722 25.0198C96.6618 25.2111 96.4935 25.3999 96.2823 25.3999H95.9306C95.9295 25.3999 95.9286 25.4007 95.9286 25.4018ZM98.357 24.2576C98.8464 24.2576 99.2906 24.5436 99.4932 24.989L100.583 27.3852C100.695 27.6308 100.515 27.9098 100.245 27.9098C100.097 27.9098 99.9623 27.8211 99.9039 27.6844L99.7948 27.4289C99.6703 27.1372 99.3837 26.9479 99.0665 26.9479H98.3801C98.0629 26.9479 97.7764 27.1372 97.6518 27.4289L97.5385 27.6942C97.4827 27.825 97.3543 27.9098 97.2121 27.9098C96.9539 27.9098 96.7821 27.6429 96.889 27.4079L98.3066 24.2901C98.3156 24.2703 98.3353 24.2576 98.357 24.2576ZM98.3479 25.8403C98.2252 26.1306 98.4383 26.452 98.7535 26.452C99.0668 26.452 99.2799 26.1339 99.1607 25.8442L98.7711 24.8972C98.769 24.8922 98.7642 24.8889 98.7587 24.8889C98.7534 24.8889 98.7485 24.8921 98.7464 24.8971L98.3479 25.8403ZM101.196 24.2426C101.196 24.2509 101.203 24.2576 101.211 24.2576H103.107C104.339 24.2576 104.589 24.9339 104.589 25.3849C104.589 25.8357 104.357 26.5121 103.107 26.497H102.645C102.259 26.497 101.946 26.8099 101.946 27.1959V27.5198C101.946 27.7269 101.779 27.8948 101.571 27.8948C101.364 27.8948 101.196 27.7269 101.196 27.5198V24.2426ZM101.964 25.986H103.071C103.411 25.986 103.821 25.8357 103.821 25.3849C103.821 24.9339 103.482 24.7837 103.071 24.7837H102.548C102.216 24.7837 101.946 25.0528 101.946 25.3849V25.9682C101.946 25.978 101.954 25.986 101.964 25.986ZM105.071 24.6326C105.071 24.4255 105.239 24.2576 105.446 24.2576C105.653 24.2576 105.821 24.4255 105.821 24.6326V27.5348C105.821 27.7419 105.653 27.9098 105.446 27.9098C105.239 27.9098 105.071 27.7419 105.071 27.5348V24.6326ZM106.232 24.5357C106.232 24.3821 106.357 24.2576 106.51 24.2576H109.454C109.608 24.2576 109.732 24.3821 109.732 24.5357C109.732 24.6892 109.608 24.8137 109.454 24.8137H109.045C108.665 24.8137 108.357 25.1216 108.357 25.5013V27.5348C108.357 27.7419 108.189 27.9098 107.982 27.9098C107.775 27.9098 107.607 27.7419 107.607 27.5348V25.5013C107.607 25.1216 107.299 24.8137 106.92 24.8137H106.51C106.357 24.8137 106.232 24.6892 106.232 24.5357ZM110.857 24.2576C111.347 24.2576 111.791 24.5436 111.993 24.9891L113.083 27.3851C113.195 27.6308 113.015 27.9098 112.745 27.9098C112.596 27.9098 112.462 27.8211 112.404 27.6844L112.295 27.4289C112.17 27.1372 111.884 26.9479 111.566 26.9479H110.88C110.563 26.9479 110.276 27.1372 110.152 27.4289L110.038 27.6942C109.983 27.825 109.854 27.9098 109.712 27.9098C109.454 27.9098 109.282 27.6429 109.389 27.4079L110.807 24.2901C110.816 24.2703 110.836 24.2576 110.857 24.2576ZM110.848 25.8402C110.725 26.1305 110.938 26.452 111.253 26.452C111.567 26.452 111.78 26.134 111.661 25.8442L111.271 24.8972C111.269 24.8922 111.264 24.8889 111.259 24.8889C111.254 24.8889 111.249 24.8921 111.247 24.8971L110.848 25.8402ZM113.696 24.2576C114.111 24.2576 114.446 24.5934 114.446 25.0076V26.2555C114.446 26.862 114.938 27.3537 115.545 27.3537H116.365C116.518 27.3537 116.643 27.4782 116.643 27.6317C116.643 27.7853 116.518 27.9098 116.365 27.9098H115.161C114.342 27.9098 113.679 27.2462 113.679 26.4276V24.2754C113.679 24.2656 113.686 24.2576 113.696 24.2576Z" fill="#1D1D1B"/>
<path d="M118.819 24.2705C118.814 24.2661 118.817 24.2576 118.824 24.2576H121.526C121.679 24.2576 121.804 24.3821 121.804 24.5357C121.804 24.6892 121.679 24.8137 121.526 24.8137H120.052C119.787 24.8137 119.572 25.0291 119.572 25.2947C119.572 25.5603 119.787 25.7756 120.052 25.7756H121.273C121.418 25.7756 121.536 25.8934 121.536 26.0386C121.536 26.1839 121.418 26.3016 121.273 26.3016H120.383C119.935 26.3016 119.572 26.665 119.572 27.1132V27.5498C119.572 27.7569 119.404 27.9248 119.197 27.9248C118.989 27.9248 118.822 27.7569 118.822 27.5498V24.276C118.822 24.2739 118.821 24.2719 118.819 24.2705ZM122.25 24.6326C122.25 24.4255 122.418 24.2576 122.625 24.2576C122.832 24.2576 123 24.4255 123 24.6326V27.5348C123 27.7419 122.832 27.9098 122.625 27.9098C122.418 27.9098 122.25 27.7419 122.25 27.5348V24.6326ZM123.839 26.0837C123.839 25.0752 124.657 24.2576 125.665 24.2576H125.911C126.857 24.2576 127.34 24.6183 127.34 25.2496C127.34 25.2939 127.337 25.3362 127.331 25.3767C127.295 25.6572 127.268 26.6651 127.268 26.9479C127.268 27.0773 127.271 27.1897 127.279 27.2879C127.298 27.5294 127.066 27.9098 126.824 27.9098C126.733 27.9098 126.645 27.865 126.616 27.7791C126.572 27.6464 126.572 27.5034 126.572 27.3687C126.572 26.6924 126.411 26.4069 125.714 26.4069H125.341C124.926 26.4069 124.589 26.7433 124.589 27.1583V27.5348C124.589 27.7419 124.421 27.9098 124.214 27.9098C124.007 27.9098 123.839 27.7419 123.839 27.5348V26.0837ZM124.607 25.3548C124.607 25.6702 124.863 25.9259 125.178 25.9259H125.857C126.339 25.9259 126.59 25.7305 126.59 25.3398C126.59 24.949 126.232 24.7837 125.84 24.7837H125.178C124.863 24.7837 124.607 25.0394 124.607 25.3548ZM128.182 26.6924C128.387 26.6924 128.54 26.8706 128.641 27.049C128.81 27.3471 129.205 27.474 129.661 27.474C130.268 27.474 130.571 27.2034 130.571 26.9179C130.571 26.6323 130.393 26.5271 130.214 26.467C129.911 26.3768 129.518 26.3016 128.929 26.1664C128.197 26.001 127.964 25.6253 127.964 25.2345C127.964 24.4981 128.768 24.1674 129.553 24.1674C130.198 24.1674 130.903 24.4404 131.135 24.9614C131.223 25.1578 131.04 25.3398 130.825 25.3398C130.622 25.3398 130.468 25.1682 130.351 25.0019C130.197 24.7838 129.902 24.6935 129.536 24.6935C129.018 24.6935 128.732 24.7987 128.732 25.1744C128.732 25.5502 128.947 25.5802 129.25 25.6404C129.322 25.6554 130.268 25.8658 130.5 25.9259C131.072 26.0762 131.339 26.482 131.339 26.8577C131.339 27.6693 130.482 28 129.607 28C128.863 28 128.093 27.7065 127.869 27.0641C127.8 26.8678 127.974 26.6924 128.182 26.6924ZM131.482 24.5357C131.482 24.3821 131.607 24.2576 131.76 24.2576H134.704C134.858 24.2576 134.982 24.3821 134.982 24.5357C134.982 24.6892 134.858 24.8137 134.704 24.8137H134.295C133.915 24.8137 133.607 25.1216 133.607 25.5013V27.5348C133.607 27.7419 133.439 27.9098 133.232 27.9098C133.025 27.9098 132.857 27.7419 132.857 27.5348V25.5011C132.857 25.1215 132.549 24.8137 132.17 24.8137H131.76C131.607 24.8137 131.482 24.6892 131.482 24.5357Z" fill="#C51821"/>
<path d="M1.4944 24.6234C1.59569 24.4006 1.81781 24.2576 2.0625 24.2576C2.30719 24.2576 2.52931 24.4006 2.6306 24.6234L3.88641 27.3851C3.99814 27.6308 3.81852 27.9098 3.54862 27.9098C3.39999 27.9098 3.26571 27.8211 3.20734 27.6844L3.09821 27.4289C2.97366 27.1372 2.68709 26.9479 2.36992 26.9479H1.71937C1.4022 26.9479 1.11562 27.1372 0.991072 27.4289L0.877761 27.6942C0.821935 27.825 0.693487 27.9098 0.551325 27.9098C0.293153 27.9098 0.121346 27.6429 0.228213 27.4079L1.4944 24.6234ZM1.65146 25.8402C1.52874 26.1305 1.74187 26.452 2.05705 26.452C2.3704 26.452 2.58349 26.1339 2.4643 25.8441L2.07484 24.8972C2.07278 24.8922 2.06788 24.8889 2.06245 24.8889C2.05707 24.8889 2.05221 24.8921 2.05012 24.8971L1.65146 25.8402ZM7.24999 25.4018C7.24999 25.404 7.24682 25.4044 7.24617 25.4023C7.11853 24.9881 6.79712 24.6935 6.1607 24.6935C5.23216 24.6935 4.83928 25.3849 4.83928 26.0762C4.83928 26.7676 5.23216 27.4589 6.1607 27.4589C6.89206 27.4589 7.11386 27.1979 7.20999 26.8226C7.25697 26.6392 7.40937 26.497 7.5987 26.497C7.81623 26.497 7.99359 26.6838 7.92366 26.8898C7.70149 27.5442 7.03226 27.9699 6.1607 27.9699C5.12501 27.9699 4.08928 27.0982 4.08928 26.0612C4.08928 25.0241 4.875 24.1524 6.1607 24.1524C6.97119 24.1524 7.63576 24.4697 7.89347 25.0198C7.98308 25.2111 7.81485 25.3999 7.60364 25.3999H7.2519C7.25084 25.3999 7.24999 25.4007 7.24999 25.4018ZM9.67857 24.2576C10.168 24.2576 10.6122 24.5436 10.8148 24.9891L11.9043 27.3851C12.016 27.6308 11.8364 27.9098 11.5665 27.9098C11.4179 27.9098 11.2836 27.8211 11.2252 27.6844L11.1161 27.4289C10.9915 27.1372 10.7049 26.9479 10.3878 26.9479H9.70152C9.38435 26.9479 9.09778 27.1372 8.97322 27.4289L8.85991 27.6942C8.80408 27.825 8.67564 27.9098 8.53347 27.9098C8.2753 27.9098 8.10349 27.6429 8.21036 27.4079L9.62807 24.2901C9.63707 24.2703 9.65682 24.2576 9.67857 24.2576ZM9.66932 25.8402C9.54661 26.1305 9.75973 26.452 10.0749 26.452C10.3883 26.452 10.6013 26.1339 10.4822 25.8441L10.0927 24.8972C10.0906 24.8922 10.0857 24.8889 10.0803 24.8889C10.0749 24.8889 10.0701 24.8921 10.068 24.8971L9.66932 25.8402ZM12.5179 24.2426C12.5179 24.2509 12.5246 24.2576 12.5329 24.2576H14.3214C15.6607 24.2576 16.2321 25.0692 16.2321 26.0762C16.2321 27.0832 15.6607 27.8948 14.3214 27.8948C13.3253 27.8948 12.5179 27.0873 12.5179 26.0912V24.2426ZM13.2857 27.3687C13.2857 27.377 13.2924 27.3838 13.3007 27.3838H14.0357C15.2321 27.3838 15.4821 26.8126 15.4821 26.0762C15.4821 25.3398 15.2321 24.7686 14.0357 24.7686C13.6215 24.7686 13.2857 25.1044 13.2857 25.5186V27.3687ZM16.8724 24.2705C16.8672 24.2661 16.8703 24.2576 16.8771 24.2576H19.7041C19.8577 24.2576 19.9821 24.3821 19.9821 24.5357C19.9821 24.6892 19.8577 24.8137 19.7041 24.8137H18.1059C17.8403 24.8137 17.625 25.0291 17.625 25.2947C17.625 25.5603 17.8403 25.7756 18.1059 25.7756H19.5406C19.6858 25.7756 19.8036 25.8934 19.8036 26.0386C19.8036 26.1839 19.6858 26.3016 19.5406 26.3016H18.1585C17.8639 26.3016 17.625 26.5405 17.625 26.8352C17.625 27.1299 17.8639 27.3687 18.1585 27.3687H19.7577C19.9112 27.3687 20.0357 27.4932 20.0357 27.6468C20.0357 27.8003 19.9112 27.9248 19.7577 27.9248H18.4554C17.5825 27.9248 16.875 27.2173 16.875 26.3445V24.276C16.875 24.2739 16.8741 24.2719 16.8724 24.2705ZM20.5893 24.2576H20.9938C21.3978 24.2576 21.7637 24.5035 21.9199 24.8761C22.2631 25.6953 23.4311 25.7012 23.7656 24.8783L23.8583 24.6502C23.9548 24.4129 24.1855 24.2576 24.4417 24.2576C24.7895 24.2576 25.0714 24.5396 25.0714 24.8874V27.5526C25.0714 27.7499 24.9115 27.9098 24.7143 27.9098C24.5171 27.9098 24.3572 27.7499 24.3572 27.5526V27.4336C24.3572 26.9151 23.6459 26.77 23.4428 27.2471L23.2831 27.6222C23.2089 27.7966 23.0377 27.9098 22.8482 27.9098C22.6587 27.9098 22.4875 27.7966 22.4133 27.6222L22.2536 27.2471C22.0505 26.77 21.3393 26.9151 21.3393 27.4336V27.5526C21.3393 27.7499 21.1794 27.9098 20.9821 27.9098C20.7849 27.9098 20.625 27.7499 20.625 27.5526V24.2933C20.625 24.2736 20.609 24.2576 20.5893 24.2576ZM27.0893 26.8333C27.0893 26.605 27.0167 26.3827 26.882 26.1983L25.8723 24.8162C25.7027 24.584 25.8685 24.2576 26.156 24.2576C26.2708 24.2576 26.3784 24.3137 26.4441 24.4079L26.6487 24.7012C27.0518 25.2789 27.908 25.2758 28.3067 24.6951L28.5048 24.4067C28.5689 24.3134 28.6748 24.2576 28.788 24.2576C29.069 24.2576 29.2311 24.5768 29.0653 24.8037L28.0465 26.1983C27.9118 26.3827 27.8393 26.605 27.8393 26.8333V27.5348C27.8393 27.7419 27.6714 27.9098 27.4643 27.9098C27.2572 27.9098 27.0893 27.7419 27.0893 27.5348V26.8333Z" fill="#1D1D1B"/>
</g>
</svg>
