<svg width="154" height="95" viewBox="0 0 154 95" fill="none" xmlns="http://www.w3.org/2000/svg">
<path d="M27.8919 3.984C29.2572 3.984 30.4732 4.304 31.5399 4.944C32.6065 5.56267 33.4385 6.42667 34.0359 7.536C34.6332 8.624 34.9319 9.85067 34.9319 11.216V11.632C34.9319 12.9973 34.6332 14.2347 34.0359 15.344C33.4385 16.4533 32.6065 17.328 31.5399 17.968C30.4732 18.5867 29.2572 18.896 27.8919 18.896H22.6119V26H15.5399V3.984H27.8919ZM22.6119 13.744H25.5239C26.2705 13.744 26.8252 13.552 27.1879 13.168C27.5719 12.784 27.7639 12.2613 27.7639 11.6V11.344C27.7639 10.6613 27.5719 10.1387 27.1879 9.776C26.8252 9.392 26.2705 9.2 25.5239 9.2H22.6119V13.744ZM45.5776 3.6C49.375 3.6 52.3083 4.57067 54.3776 6.512C56.447 8.45333 57.4816 11.28 57.4816 14.992C57.4816 18.704 56.447 21.5307 54.3776 23.472C52.3083 25.4133 49.375 26.384 45.5776 26.384C41.7803 26.384 38.847 25.424 36.7776 23.504C34.7296 21.5627 33.7056 18.7253 33.7056 14.992C33.7056 11.2587 34.7296 8.432 36.7776 6.512C38.847 4.57067 41.7803 3.6 45.5776 3.6ZM45.5776 8.88C44.063 8.88 42.911 9.33867 42.1216 10.256C41.3323 11.1733 40.9376 12.4107 40.9376 13.968V16.016C40.9376 17.5733 41.3323 18.8107 42.1216 19.728C42.911 20.6453 44.063 21.104 45.5776 21.104C47.0923 21.104 48.2443 20.6453 49.0336 19.728C49.8443 18.8107 50.2496 17.5733 50.2496 16.016V13.968C50.2496 12.4107 49.8443 11.1733 49.0336 10.256C48.2443 9.33867 47.0923 8.88 45.5776 8.88ZM78.1859 10.736C78.1859 12.08 77.8232 13.296 77.0979 14.384C76.3725 15.472 75.3165 16.272 73.9299 16.784L78.8259 26H70.8899L66.9859 17.968H64.3619V26H57.2899V3.984H70.7619C72.3405 3.984 73.6845 4.29333 74.7939 4.912C75.9245 5.50933 76.7672 6.33067 77.3219 7.376C77.8979 8.4 78.1859 9.52 78.1859 10.736ZM70.9859 11.024C70.9859 10.448 70.7939 9.968 70.4099 9.584C70.0259 9.2 69.5565 9.008 69.0019 9.008H64.3619V13.072H69.0019C69.5565 13.072 70.0259 12.88 70.4099 12.496C70.7939 12.0907 70.9859 11.6 70.9859 11.024ZM48.3884 25.984C56.0897 25.984 59.9404 29.6533 59.9404 36.992C59.9404 44.3307 56.0897 48 48.3884 48H38.8524V25.984H48.3884ZM45.9244 42.72H48.2604C51.2257 42.72 52.7084 41.1307 52.7084 37.952V36.032C52.7084 32.8533 51.2257 31.264 48.2604 31.264H45.9244V42.72ZM59.7586 25.984H78.7986V31.264H66.8306V34.304H77.0706V39.36H66.8306V42.72H79.0226V48H59.7586V25.984Z" fill="white"/>
<path d="M31.4558 70L22.2078 59.312V70H15.7118V47.984H21.8878L31.1358 58.832V47.984H37.6318V70H31.4558ZM49.312 47.6C53.1093 47.6 56.0427 48.5707 58.112 50.512C60.1813 52.4533 61.216 55.28 61.216 58.992C61.216 62.704 60.1813 65.5307 58.112 67.472C56.0427 69.4133 53.1093 70.384 49.312 70.384C45.5147 70.384 42.5813 69.424 40.512 67.504C38.464 65.5627 37.44 62.7253 37.44 58.992C37.44 55.2587 38.464 52.432 40.512 50.512C42.5813 48.5707 45.5147 47.6 49.312 47.6ZM49.312 52.88C47.7973 52.88 46.6453 53.3387 45.856 54.256C45.0667 55.1733 44.672 56.4107 44.672 57.968V60.016C44.672 61.5733 45.0667 62.8107 45.856 63.728C46.6453 64.6453 47.7973 65.104 49.312 65.104C50.8267 65.104 51.9787 64.6453 52.768 63.728C53.5787 62.8107 53.984 61.5733 53.984 60.016V57.968C53.984 56.4107 53.5787 55.1733 52.768 54.256C51.9787 53.3387 50.8267 52.88 49.312 52.88ZM51.8776 92L42.6296 81.312V92H36.1336V69.984H42.3096L51.5576 80.832V69.984H58.0536V92H51.8776ZM58.7899 69.984H77.8299V75.264H65.8619V78.304H76.1019V83.36H65.8619V86.72H78.0539V92H58.7899V69.984Z" fill="white"/>
<path d="M93.822 16.216C92.562 16.216 91.494 15.988 90.618 15.532C89.742 15.064 89.07 14.362 88.602 13.426C88.146 12.478 87.918 11.278 87.918 9.826C87.918 7.678 88.44 6.076 89.484 5.02C90.528 3.964 91.98 3.436 93.84 3.436C94.896 3.436 95.832 3.61 96.648 3.958C97.464 4.294 98.1 4.81 98.556 5.506C99.024 6.19 99.258 7.054 99.258 8.098H97.53C97.53 7.378 97.374 6.784 97.062 6.316C96.762 5.848 96.336 5.5 95.784 5.272C95.232 5.032 94.584 4.912 93.84 4.912C92.976 4.912 92.232 5.08 91.608 5.416C90.984 5.752 90.51 6.274 90.186 6.982C89.862 7.678 89.7 8.578 89.7 9.682V10.06C89.7 11.152 89.862 12.046 90.186 12.742C90.51 13.426 90.978 13.93 91.59 14.254C92.214 14.578 92.964 14.74 93.84 14.74C94.608 14.74 95.268 14.626 95.82 14.398C96.384 14.17 96.816 13.822 97.116 13.354C97.428 12.874 97.584 12.274 97.584 11.554H99.258C99.258 12.622 99.018 13.498 98.538 14.182C98.07 14.866 97.428 15.376 96.612 15.712C95.796 16.048 94.866 16.216 93.822 16.216ZM103.714 16.216C103.366 16.216 103.018 16.174 102.67 16.09C102.322 16.006 101.998 15.868 101.698 15.676C101.398 15.484 101.158 15.22 100.978 14.884C100.798 14.536 100.708 14.104 100.708 13.588C100.708 12.94 100.864 12.406 101.176 11.986C101.488 11.566 101.92 11.242 102.472 11.014C103.036 10.774 103.702 10.612 104.47 10.528C105.238 10.432 106.072 10.384 106.972 10.384V9.304C106.972 8.956 106.912 8.656 106.792 8.404C106.672 8.152 106.456 7.96 106.144 7.828C105.844 7.684 105.412 7.612 104.848 7.612C104.308 7.612 103.876 7.684 103.552 7.828C103.24 7.96 103.018 8.134 102.886 8.35C102.766 8.566 102.706 8.806 102.706 9.07V9.34H101.176C101.164 9.28 101.158 9.22 101.158 9.16C101.158 9.1 101.158 9.028 101.158 8.944C101.158 8.368 101.314 7.888 101.626 7.504C101.95 7.108 102.4 6.814 102.976 6.622C103.552 6.418 104.212 6.316 104.956 6.316C105.748 6.316 106.408 6.43 106.936 6.658C107.476 6.886 107.878 7.21 108.142 7.63C108.418 8.05 108.556 8.554 108.556 9.142V14.272C108.556 14.5 108.61 14.662 108.718 14.758C108.826 14.842 108.958 14.884 109.114 14.884H109.816V15.928C109.648 16 109.462 16.06 109.258 16.108C109.054 16.168 108.82 16.198 108.556 16.198C108.244 16.198 107.986 16.132 107.782 16C107.578 15.88 107.422 15.712 107.314 15.496C107.206 15.268 107.134 15.016 107.098 14.74H106.972C106.756 15.04 106.48 15.304 106.144 15.532C105.82 15.748 105.454 15.916 105.046 16.036C104.638 16.156 104.194 16.216 103.714 16.216ZM104.11 14.884C104.494 14.884 104.854 14.824 105.19 14.704C105.538 14.584 105.844 14.416 106.108 14.2C106.372 13.972 106.582 13.702 106.738 13.39C106.894 13.078 106.972 12.736 106.972 12.364V11.572C106 11.572 105.172 11.626 104.488 11.734C103.804 11.842 103.276 12.034 102.904 12.31C102.544 12.586 102.364 12.976 102.364 13.48C102.364 13.804 102.436 14.068 102.58 14.272C102.724 14.476 102.928 14.632 103.192 14.74C103.456 14.836 103.762 14.884 104.11 14.884ZM111.146 19.114V6.532H112.406L112.568 7.882H112.694C113.018 7.354 113.432 6.964 113.936 6.712C114.44 6.448 115.01 6.316 115.646 6.316C116.438 6.316 117.11 6.49 117.662 6.838C118.214 7.186 118.64 7.732 118.94 8.476C119.24 9.208 119.39 10.162 119.39 11.338C119.39 12.442 119.234 13.36 118.922 14.092C118.622 14.812 118.196 15.346 117.644 15.694C117.092 16.042 116.45 16.216 115.718 16.216C115.31 16.216 114.926 16.168 114.566 16.072C114.206 15.976 113.882 15.826 113.594 15.622C113.306 15.406 113.054 15.136 112.838 14.812H112.73V19.114H111.146ZM115.214 14.83C115.802 14.83 116.282 14.716 116.654 14.488C117.026 14.248 117.302 13.882 117.482 13.39C117.662 12.886 117.752 12.244 117.752 11.464V11.086C117.752 10.258 117.656 9.598 117.464 9.106C117.272 8.602 116.99 8.242 116.618 8.026C116.258 7.81 115.808 7.702 115.268 7.702C114.68 7.702 114.194 7.834 113.81 8.098C113.438 8.35 113.162 8.734 112.982 9.25C112.814 9.766 112.73 10.396 112.73 11.14V11.41C112.73 12.07 112.79 12.622 112.91 13.066C113.042 13.498 113.222 13.846 113.45 14.11C113.69 14.374 113.96 14.56 114.26 14.668C114.56 14.776 114.878 14.83 115.214 14.83ZM121.359 4.75V2.986H122.943V4.75H121.359ZM121.359 16V6.532H122.943V16H121.359ZM127.616 16.216C127.124 16.216 126.74 16.126 126.464 15.946C126.188 15.754 125.99 15.508 125.87 15.208C125.75 14.896 125.69 14.566 125.69 14.218V7.864H124.466V6.532H125.726L126.014 3.886H127.274V6.532H129.056V7.864H127.274V13.984C127.274 14.284 127.328 14.512 127.436 14.668C127.544 14.812 127.748 14.884 128.048 14.884H129.056V15.928C128.936 15.988 128.792 16.036 128.624 16.072C128.456 16.108 128.282 16.138 128.102 16.162C127.934 16.198 127.772 16.216 127.616 16.216ZM133.122 16.216C132.774 16.216 132.426 16.174 132.078 16.09C131.73 16.006 131.406 15.868 131.106 15.676C130.806 15.484 130.566 15.22 130.386 14.884C130.206 14.536 130.116 14.104 130.116 13.588C130.116 12.94 130.272 12.406 130.584 11.986C130.896 11.566 131.328 11.242 131.88 11.014C132.444 10.774 133.11 10.612 133.878 10.528C134.646 10.432 135.48 10.384 136.38 10.384V9.304C136.38 8.956 136.32 8.656 136.2 8.404C136.08 8.152 135.864 7.96 135.552 7.828C135.252 7.684 134.82 7.612 134.256 7.612C133.716 7.612 133.284 7.684 132.96 7.828C132.648 7.96 132.426 8.134 132.294 8.35C132.174 8.566 132.114 8.806 132.114 9.07V9.34H130.584C130.572 9.28 130.566 9.22 130.566 9.16C130.566 9.1 130.566 9.028 130.566 8.944C130.566 8.368 130.722 7.888 131.034 7.504C131.358 7.108 131.808 6.814 132.384 6.622C132.96 6.418 133.62 6.316 134.364 6.316C135.156 6.316 135.816 6.43 136.344 6.658C136.884 6.886 137.286 7.21 137.55 7.63C137.826 8.05 137.964 8.554 137.964 9.142V14.272C137.964 14.5 138.018 14.662 138.126 14.758C138.234 14.842 138.366 14.884 138.522 14.884H139.224V15.928C139.056 16 138.87 16.06 138.666 16.108C138.462 16.168 138.228 16.198 137.964 16.198C137.652 16.198 137.394 16.132 137.19 16C136.986 15.88 136.83 15.712 136.722 15.496C136.614 15.268 136.542 15.016 136.506 14.74H136.38C136.164 15.04 135.888 15.304 135.552 15.532C135.228 15.748 134.862 15.916 134.454 16.036C134.046 16.156 133.602 16.216 133.122 16.216ZM133.518 14.884C133.902 14.884 134.262 14.824 134.598 14.704C134.946 14.584 135.252 14.416 135.516 14.2C135.78 13.972 135.99 13.702 136.146 13.39C136.302 13.078 136.38 12.736 136.38 12.364V11.572C135.408 11.572 134.58 11.626 133.896 11.734C133.212 11.842 132.684 12.034 132.312 12.31C131.952 12.586 131.772 12.976 131.772 13.48C131.772 13.804 131.844 14.068 131.988 14.272C132.132 14.476 132.336 14.632 132.6 14.74C132.864 14.836 133.17 14.884 133.518 14.884ZM140.555 16V2.986H142.139V16H140.555ZM148.377 16.216C147.441 16.216 146.649 16.042 146.001 15.694C145.365 15.334 144.879 14.788 144.543 14.056C144.219 13.324 144.057 12.394 144.057 11.266C144.057 10.126 144.219 9.196 144.543 8.476C144.879 7.744 145.371 7.204 146.019 6.856C146.667 6.496 147.477 6.316 148.449 6.316C149.337 6.316 150.081 6.49 150.681 6.838C151.281 7.174 151.731 7.684 152.031 8.368C152.343 9.04 152.499 9.886 152.499 10.906V11.662H145.695C145.719 12.418 145.827 13.042 146.019 13.534C146.223 14.014 146.523 14.368 146.919 14.596C147.315 14.812 147.813 14.92 148.413 14.92C148.821 14.92 149.175 14.872 149.475 14.776C149.787 14.668 150.045 14.518 150.249 14.326C150.465 14.134 150.627 13.906 150.735 13.642C150.843 13.378 150.903 13.09 150.915 12.778H152.463C152.451 13.282 152.355 13.75 152.175 14.182C151.995 14.602 151.731 14.962 151.383 15.262C151.035 15.562 150.609 15.796 150.105 15.964C149.601 16.132 149.025 16.216 148.377 16.216ZM145.731 10.474H150.861C150.861 9.946 150.801 9.502 150.681 9.142C150.561 8.782 150.387 8.488 150.159 8.26C149.943 8.032 149.685 7.87 149.385 7.774C149.097 7.666 148.767 7.612 148.395 7.612C147.843 7.612 147.375 7.714 146.991 7.918C146.607 8.122 146.313 8.434 146.109 8.854C145.905 9.274 145.779 9.814 145.731 10.474ZM88.242 23.75V21.986H89.826V23.75H88.242ZM88.242 35V25.532H89.826V35H88.242ZM94.499 35.216C94.007 35.216 93.623 35.126 93.347 34.946C93.071 34.754 92.873 34.508 92.753 34.208C92.633 33.896 92.573 33.566 92.573 33.218V26.864H91.349V25.532H92.609L92.897 22.886H94.157V25.532H95.939V26.864H94.157V32.984C94.157 33.284 94.211 33.512 94.319 33.668C94.427 33.812 94.631 33.884 94.931 33.884H95.939V34.928C95.819 34.988 95.675 35.036 95.507 35.072C95.339 35.108 95.165 35.138 94.985 35.162C94.817 35.198 94.655 35.216 94.499 35.216ZM100.005 35.216C99.6567 35.216 99.3087 35.174 98.9607 35.09C98.6127 35.006 98.2887 34.868 97.9887 34.676C97.6887 34.484 97.4487 34.22 97.2687 33.884C97.0887 33.536 96.9987 33.104 96.9987 32.588C96.9987 31.94 97.1547 31.406 97.4667 30.986C97.7787 30.566 98.2107 30.242 98.7627 30.014C99.3267 29.774 99.9927 29.612 100.761 29.528C101.529 29.432 102.363 29.384 103.263 29.384V28.304C103.263 27.956 103.203 27.656 103.083 27.404C102.963 27.152 102.747 26.96 102.435 26.828C102.135 26.684 101.703 26.612 101.139 26.612C100.599 26.612 100.167 26.684 99.8427 26.828C99.5307 26.96 99.3087 27.134 99.1767 27.35C99.0567 27.566 98.9967 27.806 98.9967 28.07V28.34H97.4667C97.4547 28.28 97.4487 28.22 97.4487 28.16C97.4487 28.1 97.4487 28.028 97.4487 27.944C97.4487 27.368 97.6047 26.888 97.9167 26.504C98.2407 26.108 98.6907 25.814 99.2667 25.622C99.8427 25.418 100.503 25.316 101.247 25.316C102.039 25.316 102.699 25.43 103.227 25.658C103.767 25.886 104.169 26.21 104.433 26.63C104.709 27.05 104.847 27.554 104.847 28.142V33.272C104.847 33.5 104.901 33.662 105.009 33.758C105.117 33.842 105.249 33.884 105.405 33.884H106.107V34.928C105.939 35 105.753 35.06 105.549 35.108C105.345 35.168 105.111 35.198 104.847 35.198C104.535 35.198 104.277 35.132 104.073 35C103.869 34.88 103.713 34.712 103.605 34.496C103.497 34.268 103.425 34.016 103.389 33.74H103.263C103.047 34.04 102.771 34.304 102.435 34.532C102.111 34.748 101.745 34.916 101.337 35.036C100.929 35.156 100.485 35.216 100.005 35.216ZM100.401 33.884C100.785 33.884 101.145 33.824 101.481 33.704C101.829 33.584 102.135 33.416 102.399 33.2C102.663 32.972 102.873 32.702 103.029 32.39C103.185 32.078 103.263 31.736 103.263 31.364V30.572C102.291 30.572 101.463 30.626 100.779 30.734C100.095 30.842 99.5667 31.034 99.1947 31.31C98.8347 31.586 98.6547 31.976 98.6547 32.48C98.6547 32.804 98.7267 33.068 98.8707 33.272C99.0147 33.476 99.2187 33.632 99.4827 33.74C99.7467 33.836 100.053 33.884 100.401 33.884ZM107.437 35V21.986H109.021V35H107.437ZM111.48 23.75V21.986H113.064V23.75H111.48ZM111.48 35V25.532H113.064V35H111.48ZM117.899 35.216C117.551 35.216 117.203 35.174 116.855 35.09C116.507 35.006 116.183 34.868 115.883 34.676C115.583 34.484 115.343 34.22 115.163 33.884C114.983 33.536 114.893 33.104 114.893 32.588C114.893 31.94 115.049 31.406 115.361 30.986C115.673 30.566 116.105 30.242 116.657 30.014C117.221 29.774 117.887 29.612 118.655 29.528C119.423 29.432 120.257 29.384 121.157 29.384V28.304C121.157 27.956 121.097 27.656 120.977 27.404C120.857 27.152 120.641 26.96 120.329 26.828C120.029 26.684 119.597 26.612 119.033 26.612C118.493 26.612 118.061 26.684 117.737 26.828C117.425 26.96 117.203 27.134 117.071 27.35C116.951 27.566 116.891 27.806 116.891 28.07V28.34H115.361C115.349 28.28 115.343 28.22 115.343 28.16C115.343 28.1 115.343 28.028 115.343 27.944C115.343 27.368 115.499 26.888 115.811 26.504C116.135 26.108 116.585 25.814 117.161 25.622C117.737 25.418 118.397 25.316 119.141 25.316C119.933 25.316 120.593 25.43 121.121 25.658C121.661 25.886 122.063 26.21 122.327 26.63C122.603 27.05 122.741 27.554 122.741 28.142V33.272C122.741 33.5 122.795 33.662 122.903 33.758C123.011 33.842 123.143 33.884 123.299 33.884H124.001V34.928C123.833 35 123.647 35.06 123.443 35.108C123.239 35.168 123.005 35.198 122.741 35.198C122.429 35.198 122.171 35.132 121.967 35C121.763 34.88 121.607 34.712 121.499 34.496C121.391 34.268 121.319 34.016 121.283 33.74H121.157C120.941 34.04 120.665 34.304 120.329 34.532C120.005 34.748 119.639 34.916 119.231 35.036C118.823 35.156 118.379 35.216 117.899 35.216ZM118.295 33.884C118.679 33.884 119.039 33.824 119.375 33.704C119.723 33.584 120.029 33.416 120.293 33.2C120.557 32.972 120.767 32.702 120.923 32.39C121.079 32.078 121.157 31.736 121.157 31.364V30.572C120.185 30.572 119.357 30.626 118.673 30.734C117.989 30.842 117.461 31.034 117.089 31.31C116.729 31.586 116.549 31.976 116.549 32.48C116.549 32.804 116.621 33.068 116.765 33.272C116.909 33.476 117.113 33.632 117.377 33.74C117.641 33.836 117.947 33.884 118.295 33.884ZM125.332 35V25.532H126.61L126.754 26.954H126.88C127.132 26.57 127.414 26.258 127.726 26.018C128.05 25.778 128.404 25.604 128.788 25.496C129.184 25.376 129.604 25.316 130.048 25.316C130.648 25.316 131.17 25.418 131.614 25.622C132.07 25.826 132.424 26.156 132.676 26.612C132.94 27.068 133.072 27.686 133.072 28.466V35H131.488V28.682C131.488 28.286 131.434 27.962 131.326 27.71C131.23 27.458 131.092 27.26 130.912 27.116C130.744 26.972 130.534 26.87 130.282 26.81C130.042 26.75 129.772 26.72 129.472 26.72C129.028 26.72 128.608 26.828 128.212 27.044C127.816 27.26 127.498 27.572 127.258 27.98C127.03 28.388 126.916 28.874 126.916 29.438V35H125.332ZM137.85 35.216C137.502 35.216 137.154 35.174 136.806 35.09C136.458 35.006 136.134 34.868 135.834 34.676C135.534 34.484 135.294 34.22 135.114 33.884C134.934 33.536 134.844 33.104 134.844 32.588C134.844 31.94 135 31.406 135.312 30.986C135.624 30.566 136.056 30.242 136.608 30.014C137.172 29.774 137.838 29.612 138.606 29.528C139.374 29.432 140.208 29.384 141.108 29.384V28.304C141.108 27.956 141.048 27.656 140.928 27.404C140.808 27.152 140.592 26.96 140.28 26.828C139.98 26.684 139.548 26.612 138.984 26.612C138.444 26.612 138.012 26.684 137.688 26.828C137.376 26.96 137.154 27.134 137.022 27.35C136.902 27.566 136.842 27.806 136.842 28.07V28.34H135.312C135.3 28.28 135.294 28.22 135.294 28.16C135.294 28.1 135.294 28.028 135.294 27.944C135.294 27.368 135.45 26.888 135.762 26.504C136.086 26.108 136.536 25.814 137.112 25.622C137.688 25.418 138.348 25.316 139.092 25.316C139.884 25.316 140.544 25.43 141.072 25.658C141.612 25.886 142.014 26.21 142.278 26.63C142.554 27.05 142.692 27.554 142.692 28.142V33.272C142.692 33.5 142.746 33.662 142.854 33.758C142.962 33.842 143.094 33.884 143.25 33.884H143.952V34.928C143.784 35 143.598 35.06 143.394 35.108C143.19 35.168 142.956 35.198 142.692 35.198C142.38 35.198 142.122 35.132 141.918 35C141.714 34.88 141.558 34.712 141.45 34.496C141.342 34.268 141.27 34.016 141.234 33.74H141.108C140.892 34.04 140.616 34.304 140.28 34.532C139.956 34.748 139.59 34.916 139.182 35.036C138.774 35.156 138.33 35.216 137.85 35.216ZM138.246 33.884C138.63 33.884 138.99 33.824 139.326 33.704C139.674 33.584 139.98 33.416 140.244 33.2C140.508 32.972 140.718 32.702 140.874 32.39C141.03 32.078 141.108 31.736 141.108 31.364V30.572C140.136 30.572 139.308 30.626 138.624 30.734C137.94 30.842 137.412 31.034 137.04 31.31C136.68 31.586 136.5 31.976 136.5 32.48C136.5 32.804 136.572 33.068 136.716 33.272C136.86 33.476 137.064 33.632 137.328 33.74C137.592 33.836 137.898 33.884 138.246 33.884ZM91.464 54.216C90.684 54.216 90.012 54.042 89.448 53.694C88.896 53.346 88.464 52.806 88.152 52.074C87.852 51.33 87.702 50.37 87.702 49.194C87.702 48.078 87.858 47.16 88.17 46.44C88.482 45.72 88.914 45.186 89.466 44.838C90.018 44.49 90.66 44.316 91.392 44.316C91.812 44.316 92.202 44.364 92.562 44.46C92.922 44.556 93.24 44.706 93.516 44.91C93.804 45.114 94.056 45.384 94.272 45.72H94.38V40.986H95.964V54H94.686L94.542 52.65H94.416C94.092 53.178 93.672 53.574 93.156 53.838C92.64 54.09 92.076 54.216 91.464 54.216ZM91.842 52.83C92.442 52.83 92.928 52.698 93.3 52.434C93.672 52.17 93.942 51.786 94.11 51.282C94.29 50.778 94.38 50.154 94.38 49.41V49.122C94.38 48.474 94.314 47.928 94.182 47.484C94.05 47.04 93.87 46.686 93.642 46.422C93.414 46.158 93.15 45.972 92.85 45.864C92.55 45.756 92.232 45.702 91.896 45.702C91.308 45.702 90.828 45.822 90.456 46.062C90.084 46.29 89.808 46.656 89.628 47.16C89.448 47.652 89.358 48.294 89.358 49.086V49.464C89.358 50.28 89.454 50.94 89.646 51.444C89.838 51.936 90.114 52.29 90.474 52.506C90.846 52.722 91.302 52.83 91.842 52.83ZM102.235 54.216C101.299 54.216 100.507 54.042 99.8589 53.694C99.2229 53.334 98.7369 52.788 98.4009 52.056C98.0769 51.324 97.9149 50.394 97.9149 49.266C97.9149 48.126 98.0769 47.196 98.4009 46.476C98.7369 45.744 99.2289 45.204 99.8769 44.856C100.525 44.496 101.335 44.316 102.307 44.316C103.195 44.316 103.939 44.49 104.539 44.838C105.139 45.174 105.589 45.684 105.889 46.368C106.201 47.04 106.357 47.886 106.357 48.906V49.662H99.5529C99.5769 50.418 99.6849 51.042 99.8769 51.534C100.081 52.014 100.381 52.368 100.777 52.596C101.173 52.812 101.671 52.92 102.271 52.92C102.679 52.92 103.033 52.872 103.333 52.776C103.645 52.668 103.903 52.518 104.107 52.326C104.323 52.134 104.485 51.906 104.593 51.642C104.701 51.378 104.761 51.09 104.773 50.778H106.321C106.309 51.282 106.213 51.75 106.033 52.182C105.853 52.602 105.589 52.962 105.241 53.262C104.893 53.562 104.467 53.796 103.963 53.964C103.459 54.132 102.883 54.216 102.235 54.216ZM99.5889 48.474H104.719C104.719 47.946 104.659 47.502 104.539 47.142C104.419 46.782 104.245 46.488 104.017 46.26C103.801 46.032 103.543 45.87 103.243 45.774C102.955 45.666 102.625 45.612 102.253 45.612C101.701 45.612 101.233 45.714 100.849 45.918C100.465 46.122 100.171 46.434 99.9669 46.854C99.7629 47.274 99.6369 47.814 99.5889 48.474ZM108.316 54V40.986H109.9V54H108.316ZM112.359 54V40.986H113.943V54H112.359ZM118.778 54.216C118.43 54.216 118.082 54.174 117.734 54.09C117.386 54.006 117.062 53.868 116.762 53.676C116.462 53.484 116.222 53.22 116.042 52.884C115.862 52.536 115.772 52.104 115.772 51.588C115.772 50.94 115.928 50.406 116.24 49.986C116.552 49.566 116.984 49.242 117.536 49.014C118.1 48.774 118.766 48.612 119.534 48.528C120.302 48.432 121.136 48.384 122.036 48.384V47.304C122.036 46.956 121.976 46.656 121.856 46.404C121.736 46.152 121.52 45.96 121.208 45.828C120.908 45.684 120.476 45.612 119.912 45.612C119.372 45.612 118.94 45.684 118.616 45.828C118.304 45.96 118.082 46.134 117.95 46.35C117.83 46.566 117.77 46.806 117.77 47.07V47.34H116.24C116.228 47.28 116.222 47.22 116.222 47.16C116.222 47.1 116.222 47.028 116.222 46.944C116.222 46.368 116.378 45.888 116.69 45.504C117.014 45.108 117.464 44.814 118.04 44.622C118.616 44.418 119.276 44.316 120.02 44.316C120.812 44.316 121.472 44.43 122 44.658C122.54 44.886 122.942 45.21 123.206 45.63C123.482 46.05 123.62 46.554 123.62 47.142V52.272C123.62 52.5 123.674 52.662 123.782 52.758C123.89 52.842 124.022 52.884 124.178 52.884H124.88V53.928C124.712 54 124.526 54.06 124.322 54.108C124.118 54.168 123.884 54.198 123.62 54.198C123.308 54.198 123.05 54.132 122.846 54C122.642 53.88 122.486 53.712 122.378 53.496C122.27 53.268 122.198 53.016 122.162 52.74H122.036C121.82 53.04 121.544 53.304 121.208 53.532C120.884 53.748 120.518 53.916 120.11 54.036C119.702 54.156 119.258 54.216 118.778 54.216ZM119.174 52.884C119.558 52.884 119.918 52.824 120.254 52.704C120.602 52.584 120.908 52.416 121.172 52.2C121.436 51.972 121.646 51.702 121.802 51.39C121.958 51.078 122.036 50.736 122.036 50.364V49.572C121.064 49.572 120.236 49.626 119.552 49.734C118.868 49.842 118.34 50.034 117.968 50.31C117.608 50.586 117.428 50.976 117.428 51.48C117.428 51.804 117.5 52.068 117.644 52.272C117.788 52.476 117.992 52.632 118.256 52.74C118.52 52.836 118.826 52.884 119.174 52.884ZM93.822 73.216C92.562 73.216 91.494 72.988 90.618 72.532C89.742 72.064 89.07 71.362 88.602 70.426C88.146 69.478 87.918 68.278 87.918 66.826C87.918 64.678 88.44 63.076 89.484 62.02C90.528 60.964 91.98 60.436 93.84 60.436C94.896 60.436 95.832 60.61 96.648 60.958C97.464 61.294 98.1 61.81 98.556 62.506C99.024 63.19 99.258 64.054 99.258 65.098H97.53C97.53 64.378 97.374 63.784 97.062 63.316C96.762 62.848 96.336 62.5 95.784 62.272C95.232 62.032 94.584 61.912 93.84 61.912C92.976 61.912 92.232 62.08 91.608 62.416C90.984 62.752 90.51 63.274 90.186 63.982C89.862 64.678 89.7 65.578 89.7 66.682V67.06C89.7 68.152 89.862 69.046 90.186 69.742C90.51 70.426 90.978 70.93 91.59 71.254C92.214 71.578 92.964 71.74 93.84 71.74C94.608 71.74 95.268 71.626 95.82 71.398C96.384 71.17 96.816 70.822 97.116 70.354C97.428 69.874 97.584 69.274 97.584 68.554H99.258C99.258 69.622 99.018 70.498 98.538 71.182C98.07 71.866 97.428 72.376 96.612 72.712C95.796 73.048 94.866 73.216 93.822 73.216ZM104.272 73.216C103.36 73.216 102.628 72.982 102.076 72.514C101.524 72.046 101.248 71.23 101.248 70.066V63.532H102.832V69.85C102.832 70.246 102.88 70.57 102.976 70.822C103.072 71.074 103.21 71.272 103.39 71.416C103.57 71.56 103.78 71.662 104.02 71.722C104.272 71.782 104.542 71.812 104.83 71.812C105.286 71.812 105.706 71.704 106.09 71.488C106.474 71.272 106.786 70.96 107.026 70.552C107.278 70.132 107.404 69.646 107.404 69.094V63.532H108.988V73H107.71L107.566 71.578H107.44C107.188 71.962 106.9 72.274 106.576 72.514C106.264 72.754 105.91 72.928 105.514 73.036C105.13 73.156 104.716 73.216 104.272 73.216ZM111.445 73V59.986H113.029V73H111.445ZM117.702 73.216C117.21 73.216 116.826 73.126 116.55 72.946C116.274 72.754 116.076 72.508 115.956 72.208C115.836 71.896 115.776 71.566 115.776 71.218V64.864H114.552V63.532H115.812L116.1 60.886H117.36V63.532H119.142V64.864H117.36V70.984C117.36 71.284 117.414 71.512 117.522 71.668C117.63 71.812 117.834 71.884 118.134 71.884H119.142V72.928C119.022 72.988 118.878 73.036 118.71 73.072C118.542 73.108 118.368 73.138 118.188 73.162C118.02 73.198 117.858 73.216 117.702 73.216ZM123.766 73.216C122.854 73.216 122.122 72.982 121.57 72.514C121.018 72.046 120.742 71.23 120.742 70.066V63.532H122.326V69.85C122.326 70.246 122.374 70.57 122.47 70.822C122.566 71.074 122.704 71.272 122.884 71.416C123.064 71.56 123.274 71.662 123.514 71.722C123.766 71.782 124.036 71.812 124.324 71.812C124.78 71.812 125.2 71.704 125.584 71.488C125.968 71.272 126.28 70.96 126.52 70.552C126.772 70.132 126.898 69.646 126.898 69.094V63.532H128.482V73H127.204L127.06 71.578H126.934C126.682 71.962 126.394 72.274 126.07 72.514C125.758 72.754 125.404 72.928 125.008 73.036C124.624 73.156 124.21 73.216 123.766 73.216ZM130.939 73V63.532H132.217L132.361 65.098H132.487C132.583 64.798 132.715 64.516 132.883 64.252C133.051 63.976 133.279 63.754 133.567 63.586C133.855 63.406 134.209 63.316 134.629 63.316C134.809 63.316 134.971 63.334 135.115 63.37C135.271 63.394 135.385 63.424 135.457 63.46V64.918H134.863C134.455 64.918 134.101 64.99 133.801 65.134C133.513 65.266 133.273 65.458 133.081 65.71C132.889 65.962 132.745 66.262 132.649 66.61C132.565 66.958 132.523 67.33 132.523 67.726V73H130.939ZM139.116 73.216C138.768 73.216 138.42 73.174 138.072 73.09C137.724 73.006 137.4 72.868 137.1 72.676C136.8 72.484 136.56 72.22 136.38 71.884C136.2 71.536 136.11 71.104 136.11 70.588C136.11 69.94 136.266 69.406 136.578 68.986C136.89 68.566 137.322 68.242 137.874 68.014C138.438 67.774 139.104 67.612 139.872 67.528C140.64 67.432 141.474 67.384 142.374 67.384V66.304C142.374 65.956 142.314 65.656 142.194 65.404C142.074 65.152 141.858 64.96 141.546 64.828C141.246 64.684 140.814 64.612 140.25 64.612C139.71 64.612 139.278 64.684 138.954 64.828C138.642 64.96 138.42 65.134 138.288 65.35C138.168 65.566 138.108 65.806 138.108 66.07V66.34H136.578C136.566 66.28 136.56 66.22 136.56 66.16C136.56 66.1 136.56 66.028 136.56 65.944C136.56 65.368 136.716 64.888 137.028 64.504C137.352 64.108 137.802 63.814 138.378 63.622C138.954 63.418 139.614 63.316 140.358 63.316C141.15 63.316 141.81 63.43 142.338 63.658C142.878 63.886 143.28 64.21 143.544 64.63C143.82 65.05 143.958 65.554 143.958 66.142V71.272C143.958 71.5 144.012 71.662 144.12 71.758C144.228 71.842 144.36 71.884 144.516 71.884H145.218V72.928C145.05 73 144.864 73.06 144.66 73.108C144.456 73.168 144.222 73.198 143.958 73.198C143.646 73.198 143.388 73.132 143.184 73C142.98 72.88 142.824 72.712 142.716 72.496C142.608 72.268 142.536 72.016 142.5 71.74H142.374C142.158 72.04 141.882 72.304 141.546 72.532C141.222 72.748 140.856 72.916 140.448 73.036C140.04 73.156 139.596 73.216 139.116 73.216ZM139.512 71.884C139.896 71.884 140.256 71.824 140.592 71.704C140.94 71.584 141.246 71.416 141.51 71.2C141.774 70.972 141.984 70.702 142.14 70.39C142.296 70.078 142.374 69.736 142.374 69.364V68.572C141.402 68.572 140.574 68.626 139.89 68.734C139.206 68.842 138.678 69.034 138.306 69.31C137.946 69.586 137.766 69.976 137.766 70.48C137.766 70.804 137.838 71.068 137.982 71.272C138.126 71.476 138.33 71.632 138.594 71.74C138.858 71.836 139.164 71.884 139.512 71.884ZM87.9 92V91.478C87.9 90.974 87.996 90.512 88.188 90.092C88.392 89.66 88.656 89.27 88.98 88.922C89.316 88.562 89.694 88.22 90.114 87.896C90.534 87.572 90.96 87.254 91.392 86.942C91.98 86.534 92.52 86.126 93.012 85.718C93.516 85.31 93.918 84.872 94.218 84.404C94.518 83.924 94.668 83.39 94.668 82.802C94.668 82.43 94.578 82.094 94.398 81.794C94.23 81.482 93.972 81.236 93.624 81.056C93.276 80.876 92.832 80.786 92.292 80.786C91.656 80.786 91.146 80.894 90.762 81.11C90.378 81.326 90.096 81.614 89.916 81.974C89.748 82.334 89.664 82.73 89.664 83.162V83.9H88.098C88.086 83.84 88.074 83.75 88.062 83.63C88.05 83.498 88.044 83.348 88.044 83.18C88.044 82.292 88.242 81.578 88.638 81.038C89.034 80.486 89.562 80.084 90.222 79.832C90.882 79.568 91.596 79.436 92.364 79.436C93.048 79.436 93.636 79.532 94.128 79.724C94.62 79.904 95.028 80.156 95.352 80.48C95.676 80.804 95.916 81.176 96.072 81.596C96.228 82.004 96.306 82.436 96.306 82.892C96.306 83.456 96.204 83.972 96 84.44C95.808 84.908 95.532 85.346 95.172 85.754C94.824 86.15 94.41 86.534 93.93 86.906C93.462 87.278 92.952 87.656 92.4 88.04C92.016 88.292 91.638 88.562 91.266 88.85C90.894 89.126 90.576 89.408 90.312 89.696C90.048 89.984 89.88 90.26 89.808 90.524H96.378V92H87.9ZM102.379 92.216C101.707 92.216 101.107 92.12 100.579 91.928C100.051 91.724 99.6009 91.382 99.2289 90.902C98.8569 90.41 98.5749 89.756 98.3829 88.94C98.1909 88.112 98.0949 87.074 98.0949 85.826C98.0949 84.578 98.1909 83.546 98.3829 82.73C98.5749 81.902 98.8569 81.248 99.2289 80.768C99.6009 80.276 100.051 79.934 100.579 79.742C101.107 79.538 101.707 79.436 102.379 79.436C103.051 79.436 103.645 79.538 104.161 79.742C104.689 79.934 105.139 80.276 105.511 80.768C105.883 81.248 106.165 81.902 106.357 82.73C106.549 83.546 106.645 84.578 106.645 85.826C106.645 87.074 106.549 88.112 106.357 88.94C106.165 89.756 105.883 90.41 105.511 90.902C105.139 91.382 104.689 91.724 104.161 91.928C103.645 92.12 103.051 92.216 102.379 92.216ZM102.379 90.884C103.063 90.884 103.591 90.71 103.963 90.362C104.347 90.014 104.611 89.498 104.755 88.814C104.911 88.13 104.989 87.278 104.989 86.258V85.43C104.989 84.398 104.911 83.54 104.755 82.856C104.611 82.16 104.347 81.638 103.963 81.29C103.591 80.942 103.063 80.768 102.379 80.768C101.695 80.768 101.161 80.942 100.777 81.29C100.393 81.638 100.123 82.154 99.9669 82.838C99.8229 83.522 99.7509 84.38 99.7509 85.412V86.222C99.7509 87.242 99.8229 88.1 99.9669 88.796C100.123 89.492 100.393 90.014 100.777 90.362C101.161 90.71 101.695 90.884 102.379 90.884ZM108.431 92V91.478C108.431 90.974 108.527 90.512 108.719 90.092C108.923 89.66 109.187 89.27 109.511 88.922C109.847 88.562 110.225 88.22 110.645 87.896C111.065 87.572 111.491 87.254 111.923 86.942C112.511 86.534 113.051 86.126 113.543 85.718C114.047 85.31 114.449 84.872 114.749 84.404C115.049 83.924 115.199 83.39 115.199 82.802C115.199 82.43 115.109 82.094 114.929 81.794C114.761 81.482 114.503 81.236 114.155 81.056C113.807 80.876 113.363 80.786 112.823 80.786C112.187 80.786 111.677 80.894 111.293 81.11C110.909 81.326 110.627 81.614 110.447 81.974C110.279 82.334 110.195 82.73 110.195 83.162V83.9H108.629C108.617 83.84 108.605 83.75 108.593 83.63C108.581 83.498 108.575 83.348 108.575 83.18C108.575 82.292 108.773 81.578 109.169 81.038C109.565 80.486 110.093 80.084 110.753 79.832C111.413 79.568 112.127 79.436 112.895 79.436C113.579 79.436 114.167 79.532 114.659 79.724C115.151 79.904 115.559 80.156 115.883 80.48C116.207 80.804 116.447 81.176 116.603 81.596C116.759 82.004 116.837 82.436 116.837 82.892C116.837 83.456 116.735 83.972 116.531 84.44C116.339 84.908 116.063 85.346 115.703 85.754C115.355 86.15 114.941 86.534 114.461 86.906C113.993 87.278 113.483 87.656 112.931 88.04C112.547 88.292 112.169 88.562 111.797 88.85C111.425 89.126 111.107 89.408 110.843 89.696C110.579 89.984 110.411 90.26 110.339 90.524H116.909V92H108.431ZM120.354 92C120.354 90.884 120.498 89.81 120.786 88.778C121.074 87.746 121.446 86.768 121.902 85.844C122.37 84.92 122.88 84.062 123.432 83.27C123.984 82.478 124.524 81.764 125.052 81.128H118.446V79.652H127.14V80.642C126.696 81.158 126.234 81.734 125.754 82.37C125.286 82.994 124.836 83.66 124.404 84.368C123.972 85.064 123.582 85.79 123.234 86.546C122.886 87.302 122.61 88.07 122.406 88.85C122.202 89.618 122.1 90.386 122.1 91.154V92H120.354Z" fill="white"/>
</svg>
